<svg xmlns="http://www.w3.org/2000/svg" width="128" height="128" fill="none" viewBox="-8 6 186 186"><path fill="#956a46" d="M18.46 186.3c0 3.42 20.53 7.68 56.62 8.5 6.63.16 13.67.36 18.98.11 24.93-1.11 54.37-5.19 54.37-8.61 0-2.53-10.31-4.15-21.64-5.36l-11.7-1.09-56.45-.75-15.56 1.2c-13 1.18-24.62 3.24-24.62 6" opacity=".3"/><path fill="#420b20" d="M125.3 174.4c3.56 1.6 4.91 4.73 4.64 7.48-.42 4.45-5.2 7.1-17.18 6.75-9.54-.3-15.82-3.33-19.96-3.9l-2.11 1.4c-1.6 3.86-6.38 6.4-16.57 5.83-5.45-.31-7.98-2.16-9.02-4.7-4.35 1.57-7.91 2.02-14.66 1.57-5.93-.4-10.38-1.4-10.68-5.75-.05-.8-.71-2.05-1.61-3-2.1-1.25-2.5-2.1-2.95-2.85-11.09 2.75-23.02-5.49-25.12-14.08-.4-1.65.6-2.55 2.2-1.6-6.13-9.29-3.54-19.08.46-24.92 1.2-1.85 2.55-1.4 2.9.45l.35 2.15c3.85-9.04 11.18-15.08 20.86-13.68 2.3.35 1.95 2.9.2 4-7.63 4.79-8.73 12.57-4.1 20.51 1.8-3.89 4.1-6.34 5.95-8.59 1.35-6.19 5.01-13.73 7.86-21.32l-1.25.15c-1.4.15-1.6-1.3-.75-3l6.43-12.14c-5.08 2.55-7.98 2.5-12.74 2.4-1.5-.05-1.6-1.05-1.1-2.85 1.4-4.74 3.7-7.94 7.41-9.99-4.51-.75-8.26-4.29-11.06-8.84-.95-1.6-.75-2.05.95-2.55 6.83-2.1 12.46-1.6 16.99.4l1.1-5.79-2.6-.85c-3.3 1.85-7.38 2.45-10.23-.85-3.86-4.95-7.96-7.9-9.86-11.2l-1.1 2.1c-5.18-4.69-6.78-15.08 0-22.27 5.2-5.04 8.3-8.69 10.6-14.14 1.6-3.69 6.63-7.99 12.39-9.19 4.98-4.79 9.38-8.04 16.01-8.89-1.8-.7-2.8-1.45-2.5-2.3 3.7-3.84 11.69-3.14 19.47-.35 4.09-4.39 8.92-5.04 12.82-4.34 2.8.55 4 1.5 2.9 2.45l-1.1 1.04c6.58-.45 11.71 1.8 13.71 4.8 6.28 1.1 10.68 3.45 14.33 10.19 2.7 4.85 6.4 8.19 9.9 10.79 8.49 5.25 8.64 15.94 4.74 20.83l-1.9 1.7c-1.14 5.64-2.14 11.38-10.08 12.18-.4 5.1-1.3 10.1-5.2 12.79l-3.2 4.5.9 7.34c4.94-1 10.28-3.05 13.18-7.64 3.9-6.14 8.55-12.99 14.93-11.69 6.79-2.9 15.32.85 16.17 8.94l-.2 1.35c4 3.9 2.95 9.54-4.88 17.53-5.29 5.05-7.99 8.89-13.72 13.09-3.05 5.1-8.44 9.34-14.88 11.59-1.2.45-1.3-.4-.6-1.95l-8.59 2.75c-.4 3.9-1.1 8.64-2.9 9.89l-2-.15 1 2.85c6.89 7.04 11.43 14.38 9.53 23.02l-1.4 2c-.25 3.39-1.64 6.19-4.04 8.79z"/><path fill="#fefce6" stroke="#d4b591" stroke-miterlimit="10" stroke-width="1.906" d="M119.7 97.25c5.49-.35 13.13-3.35 17.37-8.64 3.75-5 8.3-13.24 12.94-11.39l1.8.85c4.19-3.35 12.28-1.25 12.08 6.14l-.9 2.3c3.7.6 3.7 6.34-4.29 14.03-5.09 4.85-6.94 9.19-18.33 14.74l1.65.8c-2.2 2.55-4.1 4.7-6.89 6.05l1.1-3.1-12.39 4.69-4.14-8.69z"/><path fill="#e8d5ba" d="M121.7 104.1c3.39 8.44 5.49 10.89 14.73 8.79l-2.3-2.15c8.24-.7 15.88-6.64 22.01-13.48-2.09 1.5-4.19 1.9-6.94.4 4.2.5 10.49-1.35 13.54-5.25 2.15-2.89 2.15-5.19-.75-5.39l-1.1.75c.1-2.95-3.1-7.24-7.79-5.55l-2.4 1.5c-3.99.6-7.64 6.1-17.47 12.19l-2.1-.5c-3.24 2.25-6.34 3.35-9.54 3.7z"/><path fill="#fefce6" stroke="#d4b591" stroke-miterlimit="10" stroke-width="1.906" d="M36.32 172.9c-8.23 1.5-16.27-2.65-21.21-8.34l7.94 1.15c-8.24-5.45-10.64-13.64-8.74-21.93l2.5 5.45.7-6.45c1.7-8.19 8.18-13.58 15.41-14.18-7.83 7.19-7.13 19.18-.8 24.62l2.7-1.55z"/><path fill="#d4b591" d="M36.22 166c0 5.29 2.9 10.29 5.3 12.28 3.4-4.34 9.59-6.49 16.02-4.49q3.75 1.2 6.3 3.3l-1.1-11.04-2.4-.95-2.1-10.99-3.6 2.95-1.6-4.95-3.09 3.05-1.9-4-8.83 3z"/><path fill="#fefce6" stroke="#d4b591" stroke-miterlimit="10" stroke-width="1.906" d="M117.8 143.4c5.39 5.05 9.29 10.84 8.99 18.38l-2.1-1.45c1 5.7-1.1 10.09-4.89 13.19l-14.99 3.45.5 7.64c6.39 1 16.48 1.75 20.68-1.1 2.4-1.6 2.1-6.89-4.29-8.44-3.9-1-11.14-2.05-17.57 2.19 3.75-4.24 9.48-5.04 14.57-4.64 3.59-1.6 4.29-9.89.1-13.49l-2.2 1.8z"/><path fill="#fefce6" stroke="#d4b591" stroke-miterlimit="10" stroke-width="1.906" d="M35.22 167.8c-1.5-10.64 1.8-18.78 7.49-24.73 2.4-10.09 6.6-18.18 10.4-25.87l-4.5-.3 9.14-16.78 2.49-4.05 14.69 4.84 15.24 1.8 11.54-2.64 11.04-4 6.43 12.99c3.7 5.04 3.1 15.93.9 24.02l-2-6.09c-1.2 8.99-5.45 21.93-10.84 30.02l-.55-4c-4.74 8.09-9.88 14.69-18.07 17.98l2.5 8.99c6.09.65 9.99 3.8 21.63 4.4l3.8-.6-1.4-5.15 3.6 1.35.4 4.1 4.1-.6.6-4.5-2.7-2.09c-5.09-2.3-14.73-1.45-17.63.7 3.9-4.25 11.54-5.5 16.63-3.8 3.2-3.1 5.3-8.39 3.2-14.09l2.1 1.45c.3-7.54-4.34-13.33-9.73-18.38-2.9 7.84-6.4 14.49-9.69 17.98l-.9-3.59c-4.1 6.99-9.99 12.43-16.42 15.03l-1.4-5.44-3.59-13.59 1.4.45-.9-10.44 3.89 16.73.9 18.13c.9 3 1.9 7.6-1.3 9.65-3.99 2.5-15.68 2.2-18.98-.45-2.4-1.95-2.6-4.35-3.2-8.75-4.19-4.39-15.23-7.29-22.02-.85-2.39 2.05-6.49-.54-8.29-9.83z"/><path fill="#f8f0d3" d="M59.19 129.2c-2.9 3-5.4 10.59-5.7 17.13l-5.79-.95c3.9.95 6.09 3.95 7.39 8.79l2.7-3.95-.3 4.95 2.4 10.99 2.4-1.8 1.8 6.44 2.1-6.44 2.69 6.44.5-7.09c-1.1 7.44-2.6 19.98 1.3 23.28 1.6 1.3 4.8 1.7 5.5 1.6l-.3-5.95 2.99 4.35 4.2 1-.3-5.95 3.3 2.75c1.1-2.75-1-6.69-2.8-7.69l3.9.5-2.1-13.29-6.44-28.27 7.64 7.64.9-1.8c1.6 5.2 4.64 10.04 7.74 10.89l6.44-7.64.6 4.89c3.3-2.94 6.19-7.24 7.69-14.53l1.8 4.2c1.8-3.3 3.6-7.99 4.2-13.69l-2.1 1.4c-3.4 5.59-10.73 12.19-15.43 12.19-3.9-1.5-25.33-13.59-31.77-22.68l-8.24-10.74-1.5 2.9 4.59 5.09-6.43 2.5z"/><path fill="#c1272d" stroke="#420b20" stroke-miterlimit="10" stroke-width="2.5" d="M60.59 90.06c3.2 6.44 9.54 10.09 19.12 9.34l-1.7-7.99c3.2 2.99 6.9 4.49 10.5 5.09l-.4-1.45c4.5 3.1 11.99 3.2 19.33-4.99l.9 2.05c2.9-2.3 5.3-5.05 7.1-8.1l3.49 3c1.1 3.9 2.3 8.94 1.4 14.68-2.6 11.79-11.24 25.38-22.47 34.02-14.14-8.04-28.58-16.68-37.62-32.22-2.49-4.69-3.19-9.24.35-13.43z"/><path fill="#8a181b" d="M59.69 93.05c3.4 6.1 9.39 10.74 18.62 14.94-4.39-.9-8.09-2.7-10.48-4.8 2.7 3.9 6.59 8.39 10.48 11.29-6.98-4.2-14.62-11.29-18.62-18.28zM117.9 91.2c-1.5 5.1-4.3 8.7-8.79 12.59 4.09-1.65 7.29-4.64 9.09-8.04z"/><path fill="#fefffe" d="M88.91 112c-2 .75-2.2 2.85-1 4.4 1.4 1.95 3.2 1.5 4 .5 1.2-1.5-.5-5.95-3-4.9M93.71 105.6c-2.6.15-2.7 4.44-.8 6.44 1.4 1.5 3.2.6 3.7-1.1.6-2-.4-5.44-2.9-5.34M100.2 105c-2.5.35-2.5 4.74-1.5 5.89 1.1 1.3 2.9.3 3.6-1.45.9-2.34.3-4.74-2.1-4.44M105.2 109.7c-2.49-.3-4.29 4-3.19 5.55s3.39 1.05 4.59-1.15c1.1-2.1.7-4.15-1.4-4.4M97.61 112.5c-2.9 0-6.6 6.1-6.5 8.2.1 2.69 2.1 3.19 4 2.29 2.3-1.1 2.9-.8 4.8-.4 2.99.7 4.49-1.99 3.59-3.99-.9-2.1-3.59-6.1-5.89-6.1"/><path fill="#961a21" stroke="#420b20" stroke-miterlimit="10" stroke-width="1.906" d="M48.01 96.1c-3 1.55-5.99 4.05-7.79 7.84 5.49-.25 9.48-1.85 12.48-5.79l-2.1-1.4c1.6-.45 2.8-1.05 3.7-1.95l-1.2-1.7c-1.6.75-3.29 1.85-5.09 3zM36.02 85.31c3.7 4.5 7.1 6.94 13.89 5.89l2.2-1.39-.9-2.65-7.64-.95c3.2-.9 5.69-.9 7.79 0-3.6-2.9-9.04-3.5-15.34-.9zM54.45 88.91l1.25-1.2c1.4-.7 3.04.9 2.89 2.55l-.6 3.24c-.3 1.6-2.89 1.6-3.69 0-.9-1.39-.95-3.59.15-4.59z"/><path fill="#fefce6" stroke="#d4b591" stroke-miterlimit="10" stroke-width="1.906" d="M43.01 30.36c3.1-5.29 6.9-7.14 14.23-6.79l1.8-.65-3.59-1.7c5.79-5.14 11.78-6.94 20.32-5.74l-2.6-4.2c4.49-.6 8.69.9 12.59 3.6 3.3-5.45 6.95-6.84 11.45-7.14l-3.9 5.99c4.8-2.45 10.14-2.75 15.53-.8l-3.59 1.7c6.39.4 13.72 1.6 18.22 8.04 3.39 5.15 5.29 8.74 11.98 13.34 6.74 4.2 7.24 10.09 4.74 16.23l-2.9-5.99-1.8 12.99c-1.2 5.44-3 7.24-6.44 6.94l-1.8-4.95.36 7.79c-.3 5.7-.9 9-4.6 11.6l-5.09 6.44-3.5.6c-6.39 8.14-13.27 12.09-22.41 10.44l-9.59-1.5-8.74-2.05-9.59-7.04-2.7.9-5.34-8.34-1.5-5.45-3.6.6-7.63.9-12.64-16.09-1.8-.75c-1.2-6.09.6-10.03 5.39-14.33 4.5-4.04 6.9-8.24 8.74-14.59z"/><path fill="#e8d5ba" d="M58.14 32.91c-5.79 4.7-10.93 10.84-10.33 19.18l3.1-3.94c-.9 6.09 0 11.44-5.19 19.88l-3.1-.91-2.9-9.98-.9 5.14-3.6-8.99c-1.5 3-2.1 6.3-1.2 9.89l-3.89-6.04-1.5 2.1c-1.5-5.8.6-10.54 6.39-15.34 4.9-4.19 8.2-9.94 11.59-15.38l2.6-2.1c2.8-1.4 6.99-1.8 9.83-1.4-2.89 2-6.09 1.6-8.93 2.3 2.8-.3 6.09.95 8.03 5.59"/><path fill="#d4b591" d="M114.5 23.97c4.8 2.15 7.69 7.29 10.79 14.24 2.2 4.99 2.44 7.24-.26 6.89l-1.8-1.5c.9 5.15 2.7 11.44 6.3 16.59l-.9 5.99-2.6-3.9-2.3-4.99-2.1-18.13c-2.89-5.75-5.69-10.54-8.09-13.44z"/><path fill="#e8d5ba" d="M63.19 37.31c3.09-3.9 7.89-5.3 16.42-2.65l-.9-4.5c5.4 2.45 7.5 8.5 5.7 14.94-1.2 4.05-3.8 7.04-6.69 8.19l-6.74-1.5-1.8-6.69 3.3-3.9c-2.9-2.99-5.4-3.89-9.29-3.89M103.6 28.92c3.2-1.9 7.09-1.9 9.69.3l-5.09 3.59c4.49-.75 8.39.45 11.98 4.35l1.2 3.6-2.6-.65-4.49-3-3.2 5.14-4.79 4.2-5.1-2.95c-2.89-5.74-2.99-11.49 2.4-16.28zM62.89 84.41c2.9 5.45 7.39 7.9 11.29 9.09l-.9-5.79c2.49-.9 3.39 0 4.59 2.1l-.6-4.5c-1.2-6.04.6-11.19 4.8-15.09l1.2-3.2-2.1.3-2.9 2.3c-3.89 4.2-5.99 9.3-5.99 14.79-3.9-1.2-6-3.69-6-9.39l-1.79-1.2-2.4 3.3-2.9.9.9 4.49zM111.6 66.18c4.49 2.44 7.19 7.24 6.89 10.84l2.4-3 2.3-3.9.9 6.45 1.2-5.45-1.5-8.39-2.9 2.35-3.6-4.5zM109.8 81.91c-3.39 7.8-9.73 12.34-18.57 10.79-3.6-.59-5.99-2.99-8.09-6.49v2.4l-2.6-2.4.6 4.2 6.09 4.19 5.44 1.5c6.1.3 11.19-2.4 16.03-8.19l.6 1.8 3-5.7 2.89-3-1.5-1.79z"/><path fill="#d4b591" d="M63.09 68.77c3.1-7.69 10.74-13.43 20.63-15.23l-1.2-.9-4.5.65c-6.99 1.15-13.13 4.45-14.93 9.89zM102.8 49.65c6.09-1.5 14.93 0 21.56 5.49l1.8 3-.6-2.1c-4.19-5.19-9.88-7.29-17.52-7.89z"/><path fill="#fffef9" d="m87.81 47.55 3.9-.9 1.8 1.5 2.6-1.5 2.4 1.5 2.39-1.5 2.9 2.1-2.7 1.5-3.89-.9-2.6.9-3.5-1.8-5.09 1.8z"/><path fill="#420b20" d="M107.9 38.21c-4.79.6-5.69 6.39-4.19 8.49s5.69 3.6 8.99 2.4c3.59-1.35 3.59-3.85 2.09-7.44-1.19-2.75-4.09-3.9-6.89-3.45M73.93 42.95c-5.7 1.2-7.5 7.9-5.4 11.19 2.2 3.6 8.59 2.1 10.69 0 3.7-3.69 1.3-12.03-5.29-11.19"/><path fill="#fffefe" d="M108.4 40.71c-1.37 0-2.05 1.18-2.05 1.9 0 1.11.85 1.7 1.75 1.65 1.15-.1 1.75-.95 1.65-1.95-.1-.85-.7-1.55-1.35-1.6M76.42 45.5c-1.5 0-1.9 1-1.9 1.9 0 1.05.9 1.65 1.8 1.55 1.1-.1 1.7-.85 1.6-1.85-.1-.9-.7-1.6-1.5-1.6"/><path fill="#420b20" d="M90.61 56.69c-.6 3.45 3.3 7.29 7.5 7.29 3.9 0 7.19-3.84 7.19-7.94 0-3.6-3.2-3.95-6.49-3.95-3.9 0-7.6 1.15-8.2 4.6"/><path fill="#bc8888" d="M94.21 54.44c1.2-1.2 6.89-1.8 8.39-.6.7.6-1.2 1.2-4.09 1.5-2.4.3-5.2 0-4.3-.9"/><path fill="#420b20" d="M80.12 69.92c.5-1.8 2.3-2.9 2.6-2.6s-.6 1.8.6 2.7c3.19 2.45 11.43.6 13.53-4.84l2.4-.9c.9 3.29 3 4.19 6.9 3.59 3.89-.6 5.09-2.69 5.39-4.79 1.8.9 1.2 5.09-2.4 6.54-3.89 1.5-2.99 6.95-3.59 10.55-.9 4.49-5.4 5.99-8.99 5.09-5.45-1.55-7.55-9.29-12.69-12.29-1.5-.9-2.7-1.2-3.9-.3-1.2.75-.9-.65.15-2.75"/><path fill="#ea6852" d="M89.81 76.22c1.8-1.05 6.3-1.05 8.1 1.65-.3-1.2-.9-1.8-1.8-2.4 2.7-.3 7.19-.3 8.39 2.1 1.2 2.7-1.7 6.29-5.89 5.99-3.9-.3-6.3-3.59-8.8-7.34"/><path fill="#ea8852" d="M147.9 83.06c1-2.44 2.6-2.44 3.2-1.85 1.3 1.2.7 4.2-1.4 4.8s-2.9-.5-1.8-2.95M157.8 85.11c1.2-2.1 3.09-2.1 3.79-1.4 1.1 1.1 0 3.8-2.1 4.7-2.39 1-3.29-.7-1.69-3.3M148.2 88.91c2.7-1.5 6.29-1.2 7.19.6 1.2 2.6.3 7.09-2.1 7.69-2.6.6-3.69-2.6-6.09-3.8-1.8-1-1.2-3.49 1-4.49"/><path fill="#fefce6" stroke="#d4b591" stroke-miterlimit="10" stroke-width="1.906" d="M42.72 183.5c.7 1.2 4.29 1.65 6.99 1.55l.3-5.45 1.8 5.3 4.79-.8.6-5 1.4 4.7 3.29-1.2-1.8-4.4c-4.5-2.99-13.03-3.59-16.93.9-1.64 1.85-1.34 3.2-.44 4.4z"/></svg>