<svg xmlns="http://www.w3.org/2000/svg" width="200" height="200" fill="none" viewBox="0 0 200 200"><path fill="#956f4d" d="M93.49 195c41.67 0 83.16-8.04 83.16-14.52s-37.63-12.3-79.3-12.3-76.81 5.82-76.81 12.3c0 6.53 31.28 14.52 72.95 14.52" opacity=".3"/><path fill="#dcc9ac" stroke="#420b26" stroke-miterlimit="10" stroke-width="2.7" d="M96.77 168.8c31.32 0 62.22-5.51 62.22-11.71v18.75c0 6.2-24.02 12.07-62.22 12.07-34.24 0-58.3-5.87-58.3-12.07v-18.75c0 6.2 26.98 11.71 58.3 11.71z"/><path fill="#fdf5e1" stroke="#420b26" stroke-miterlimit="10" stroke-width="2.7" d="M96.77 167c31.32 0 62.22-5.51 62.22-10.85 0-5.95-24.02-9.03-62.22-9.03-34.24 0-58.3 3.08-58.3 9.03 0 5.34 26.98 10.85 58.3 10.85z"/><path fill="#fefffe" d="M156.9 160v16.09l-3.6 3.04v-16.82zM42.07 160.9v16.09l-2.31-1.82v-15.29z"/><path fill="#cab79e" d="M96.99 166.1c28.96 0 58.69-4.94 60.07-9.68l.51-.13c0 4.94-26.75 10.47-59.35 10.47-32.61 0-56.8-5.07-59.5-9.66l.39-.41c3.01 4.1 28.92 9.41 57.88 9.41"/><path fill="#f68e2a" d="M96.12 156.2c30.77 0 72.99-22.05 72.99-73.01 0-23.1-18.18-45.94-35.18-55.84-9.81-5.62-17.91-12.22-33.87-12.22-29.32 0-71.65 29.84-71.65 71.6s36.93 69.47 67.71 69.47"/><path stroke="#420b26" stroke-miterlimit="10" stroke-width="2" d="M150 149c-2-4.18.47-9.7 3.04-11.14l-1.67-1.21-1.6 2.35c-1.5 1.8-2.27 6.85.23 10z"/><path fill="#420b26" d="m154.1 133.1-3.24 5.64 3.06 1.04 3.83-6.09z"/><path fill="#b1282d" stroke="#420b26" stroke-linecap="round" stroke-linejoin="round" stroke-miterlimit="10" stroke-width="2.7" d="M151.6 69.77c-2.71.48-11.42 18.92-10.7 19.85.72.92 8.77.77 10.27 2.12 3.67 3.33 11 11.14 13.39 15.2-.1 2.4-1.7 3.32-2.7 2.78-1.7-.97-3.19 4.99-2.08 6s4.46-3.25 6.01-6.62c2.42 2.11 7.08 3.04 8.94 3.91-2.67 2.61-8.6 16.05-11.56 19.67-2.53 3.23-9.11 2.51-10.18-2.56-.96-4.61 4.87-5.63 8.05-12.86 1.67-4.05.09-7.55-1.98-10.44-2.83-3.94-9.2-11.83-9.1-15.75l7.64-13.12c-.96-.84-4.61-7.84-6-8.18"/><path fill="#b1282d" stroke="#420b26" stroke-linecap="round" stroke-linejoin="round" stroke-miterlimit="10" stroke-width="2" d="M157.8 78.08c5.87 3.17 18.81 4.43 25 6.11 7.61 2.25 12.01 10.48 11.81 14.08-.37 6.8-5.6 14.22-14.53 14.22-4.93 0-11.17-5.38-13.3-7.58-3.11-4.83-8.78-11.82-14.51-15.19z"/><path fill="#d05755" d="M181.9 86.71c-7.94-2.52-16.65-2.52-23-6.58l1.07-1.64c4.63 2.52 16.64 4.02 21.93 5.43 5.93 1.61 10.1 6.81 11.01 10.14l-1.22.67c-1.59-2.99-4.57-6.32-9.79-8.02"/><path fill="#861729" stroke="#420b26" stroke-linecap="round" stroke-linejoin="round" stroke-miterlimit="10" stroke-width="1.2" d="M177.9 89.91c-5.25.55-7.8 7.05-5.75 10.48 2.78 4.72 9.17 4.72 10.7 3.23 2.17-2.16 4.27-7.51 2.37-10.2-1.46-2.25-3.9-3.86-7.32-3.51"/><path stroke="#420b26" stroke-linecap="round" stroke-linejoin="round" stroke-miterlimit="10" stroke-width="1.2" d="m172.9 95.19 11.07 5.7M173.7 92.95l11.07 5.7M175.2 90.73l9.66 5.17M172.9 97.71l9.89 4.9"/><path fill="#861729" stroke="#420b26" stroke-linecap="round" stroke-linejoin="round" stroke-miterlimit="10" stroke-width="2" d="M192.7 96.44c-3.01 1.27-6.93 9.27-6.93 13.27 4.32-1.57 7.95-8.62 6.93-13.27M149.8 71.12l6.07 6.12-6.17 12.38-6.07-.87z"/><path fill="#d05755" d="M169.1 110.5c-2.93 3.3-6.89 13.63-11.82 17.39-2.22 1.72-1.01 4.21 1.62 4.21 3.85 0 11.01-17.12 14.01-19.4-1.01-.57-2.8-1.52-3.81-2.2"/><path fill="#f9f4dd" stroke="#420b26" stroke-linecap="round" stroke-linejoin="round" stroke-miterlimit="10" stroke-width="2.7" d="M148 121.1c-1.86.96-2.73 1.84-2.98 1.84 2.98-5.89.56-17.04-5.37-20-1.38 7.17-2.55 12.06-8.78 17.07l6.68 12.59c6.35-.4 9.6-6.49 10.45-11.5"/><path fill="#dcc9ac" d="M136.6 125.8c3.06-.61 6.8-3.78 7.66-7.64-1.57 1.81-2.88 2.22-4.19 2.22 2.97-2.69 4.19-7.49 1.96-13.41-1.4 6.8-4.22 10.52-8.44 13.14z"/><path fill="#f9f4dd" stroke="#420b26" stroke-linecap="round" stroke-linejoin="round" stroke-miterlimit="10" stroke-width="2.7" d="M126.5 120.2c6.23 0 11.63 9.75 10.76 17.52l-1.5-1.61c0 3.1-.56 7.96-3.03 11.59l-8 .48-2.43-20.22z"/><path fill="#dcc9ac" d="M127.4 138.6c.25 3.1 2.67 2.69 3.74.47l2.53-4.84 1.21 1.81-.25-4.96-2.53-4.99-4-1.42-1.67 4.36c-.3 2.87.31 6.88.97 9.57"/><path fill="#f9f4dd" stroke="#420b26" stroke-linecap="round" stroke-linejoin="round" stroke-miterlimit="10" stroke-width="2.7" d="M68.78 119.2c-6.63 4.95-9.87 13.61-9.36 19.55l2.37-1.75c-.55 2.8.46 7.22 2.83 10.52l8.45.41 3.65-15.33-4.31-14.4z"/><path fill="#f9f4dd" stroke="#420b26" stroke-linecap="round" stroke-linejoin="round" stroke-miterlimit="10" stroke-width="2" d="M128.9 147.7c5.22 0 8.96 1.71 8.96 6.26 0 3.47-5.47 3.74-8.45 3.74h-3.65l-2.53-4.42.97-4.62z"/><path stroke="#420b26" stroke-linecap="round" stroke-linejoin="round" stroke-miterlimit="10" stroke-width="1.2" d="M127.9 150.1c.81 1.01 1.21 2.6.91 4.99M130.9 150.1c.81.68 1.21 1.73 1.01 3.74"/><path fill="#f9f4dd" stroke="#420b26" stroke-linecap="round" stroke-linejoin="round" stroke-miterlimit="10" stroke-width="2" d="M66.01 147.7c-4.22 0-6.69 3.56-6.69 6.26 0 3.13 4.6 3.74 7.58 3.74h5.51l3.45-4.42-1.01-4.62z"/><path stroke="#420b26" stroke-linecap="round" stroke-linejoin="round" stroke-miterlimit="10" stroke-width="1.2" d="M67.41 150.7c-1.06.84-1.67 1.99-1.67 4M70.43 150.7c-1.06.84-1.67 1.99-1.67 4"/><path fill="#f9f4dd" stroke="#420b26" stroke-linecap="round" stroke-linejoin="round" stroke-miterlimit="10" stroke-width="2.7" d="M121.7 76.03c1.32 6.28 6.89 12.79 9.66 17.12l-3.23.47c2.97 4.09 4.46 9.26 3.49 14.18l-2.73-2.09c1.21 4.35.3 10.48-1.46 14.45l-.56-1.95-2.07 16.6-1.58-2.13c-.96 4.94-2.12 12.94-1.52 18.41 3 1.95 4.05 4.01 4.05 6.57 0 4.06-5.52 4.7-10.45 4.7-7.61 0-12.31-2.45-13.07-8.44h-7.44c-.96 5.51-4.9 8.44-13.2 8.44-6.43 0-9.2-2.25-9.2-5.31 0-2.53 1.77-4.62 3.45-5.96.96-4.38-.25-12.46-1.52-16.83l-1.47 1.81-2.44-19.01 1.27 1.67-1.57-3.79c-.86-3.73-.71-7.92.3-11.72l-3.95 3.4c-.2-4.89 1.83-10.65 4.91-15.55l-4.1.67c1.47-4.69 7.05-9.02 8.82-16.18l21.84-3.76z"/><path fill="#dcc9ac" d="m122.9 79.03-8.76 7.41 1.8-2.25-7.2 4.22 2.53-3.3c-4.15 1.6-7.54 4.8-12.51 4.8-3.94 0-8.54-3.2-10.51-3.81l3.94-.27-10.77-4.82.61 2.25-4.9-4.77 1.67-2.93 19.66-3.02 22.26 3.02zM114.4 112.2c-1.37 5.78-4.72 9.91-7.2 12.33l-.76-2.42c-2.27 4.05-6.99 10.06-8.86 10.06-1.97 0-5.41-5.46-6.88-7.02l-.96 1.8c-3.49-2.75-5.56-7.02-6.12-14.75 1.47 4.9 3.6 7.39 5.11 8.27l.71-2.22c2.47 3.45 6.27 6.9 8.8 6.9 2.17 0 6.97-4.95 9.47-8.05l.96 3.1c1.77-1.33 4.44-5.02 5.73-8"/><path fill="#dcc9ac" d="M115.6 92.61c1.17 2.58.51 6.35-1.97 9.46l-.96-4.96-4.57 9.51-1.97-6.47c-.97 4.01-4.2 8.81-7.5 10.79-3.44-1.98-6.47-6.31-7.48-10.79l-1.72 5.86c-2.98-2.79-4.7-6.85-4.7-11.34l-2.53 3.04c-1.01-1.6-.91-3.65-.5-5.1-1.67 3.5.5 8.12 7.02 15.19l-1.51-.78 11.07 7.65 11.39-10.51-1.01.47c3.74-3.17 6.94-7.52 6.94-12.02M91.73 130.1l2.98 13.64-.96-.61.45 9.56-2.02.53c1.47-4.62-1.01-13.46-2.48-17.17l1.47 2.56-2.93-11.59zM106.7 129.1l-2.98 14.09 1.46-2.09-1.46 5.65 1.01-.61-1.01 7.14 2.53 1.86c-1.47-5.94.96-16 2.93-19.03l-1.97 2.56 2.48-10.71z"/><path fill="#dcc9ac" d="M78.28 152.4c-1.76 1.82-2.17 3.88-1.97 6.4l1.97.88c-.45-2.66.51-4.07 2.48-5.46-.61 1.39-.61 3.41 0 4.85.85-.27 1.46-2.99 1.97-4 2.67 1.01 6.21 1.34 7.98-1.86 1.67-3.33.46-10.97-1.01-14.61l1.47 1.08-2.93-12.67-2.53-2.88c2.48 3.76 6.47 6.95 6.47 18.99l-1.01-1.09 1.01 4.65-1.01-.61c1.01 4.01 1.01 10.01-3.94 11.56-2.48.82-4.5 1.17-5.51 1.17-.96-1.17-.96-3.19-.51-4.58-.96.47-2.42 1.39-2.93 3.41zM114.1 155.1c1.01 1.01 1.01 2.56.51 4.33l1.97-.33c1.01-1.44 1.01-4-.46-5.86 2.48.68 4.45 2.4 4.45 5.24 2.49-.82 3.15-2.37 2.64-5.24-.51-2.52-3.09-3.33-4.05-5.1-.76-1.63.45-12.07 2.02-17.03l1.47 2.01 3.45-19-1.92 1.36c1.51-3.32 2.48-8.86 1.01-14.36l3.44 2.5c-.51-5.91-3.94-12.55-6.94-15.69l5.47 1.23c-1.97-2.45-5.97-8.55-6.48-11.62l-8.09 6.65 1.51-2.52c-3.48 2.25-6.92 2.52-8.89 2.52-2.53 1.64-4.51 2.25-6.49 2.25-1.97 0-7.58-2.52-9.55-3.18l.5.66c-3.94-1.2-7.48-3.79-9.45-5.43l.96 2.52c-2.98-1.98-4.39-3.77-5.35-4.98l3.43-.88 19.16-3.35 20.18 3.35c1.47.41 3.09.88 3.65 1.49.45 3.49 4.41 9.8 6.88 13.27l-3.94-1.09c2.93 3.46 6.42 9.45 6.42 16.29l-2.53-1.89c1.01 3.4 1.01 9.51-.96 14.38l-.96-1.58-1.47 4.41-2.48 9.48-.96 1.2c-2.03 6.51-2.64 14.51-2.08 18.05 2.08 1.56 4.01 3.27 4.52 5.56.5 2.33-.97 4.38-2.44 4.71-.56-2.38-3.09-4.33-8.15-4.33"/><path fill="#da6827" stroke="#420b26" stroke-linecap="round" stroke-linejoin="round" stroke-miterlimit="10" stroke-width="2" d="m155.1 7.68-7.89 5.23c-1.56 1.05-.7 3.47 1.21 3.2l8.1-4.69c1.26-.81 3.39-.2 4.15 1.49l24.08 39.96c1.07 1.89.56 3.84-1 4.79l-8.25 4.86c-1.31.95 0 1.22 1.21.54l9.01-5.2c2.42-1.42 2.67-4.08 1.2-6.6L162.85 9.3c-1.67-2.89-4.61-3.63-7.75-1.62"/><path stroke="#420b26" stroke-linecap="round" stroke-linejoin="round" stroke-miterlimit="10" stroke-width="1.2" d="m149.4 18.12 8.66-5.07 23.67 40.29-8.66 5.89M151 20.64l7.59-4.53M153 23.16l7.6-4.53M154.5 25.32l7.6-4.55M156.4 27.54l7.6-4.55M157.9 29.76l7.6-4.55M159.4 31.98l7.6-4.55M160.8 34.2l7.6-4.55M162.3 36.42l7.6-4.55M163.8 38.64l7.6-4.55M165.2 40.86l7.6-4.55M166.7 43.08l7.6-4.55M168.2 45.3l7.6-4.55M169.7 47.52l7.6-4.55M171.1 49.74l7.6-4.55M172.6 51.96l7.6-4.55M173.6 54.76l7.6-4.55"/><path fill="#d97835" stroke="#420b26" stroke-linecap="round" stroke-linejoin="round" stroke-miterlimit="10" stroke-width="2" d="M52.21 11.35 37.14 25.21l5.18-19.54c-1.61-.41-3.28.74-4.39 3.39L26.91 33.93c-2.78 4.19-6.02 6.28-9.1 6.62-2.62-.61-6.67-1.69-10.06 2.4-4.55 5.46-1.53 11.13 2.27 11.81 5.22.95 8.14-3.03 8.9-7.1.81-3.2 3.79-5.45 7.74-6.13l1.26 1.55c.2 3.03 0 6.09-2.07 7.64-5.11 3.83-4.1 11.19 1.27 13.71.5 2.22.3 5.75 3.27 6.36 1.72.4 2.73-1.76 1.01-3.18-1.26-1.09-1.26-3.48.2-4.29 5.57-3.1 5.07-9.1.61-12.6-1.11-2.66-.1-8.99 2.37-12.87l17.13-21.47c1.77-2.02 2.07-4.75.5-5.03M11.79 51.73c-2.53-.47-3.69-3.46-1.97-6.02 1.47-2.36 3.94-2.49 5.21-1.3 2.58 2.45.76 8.06-3.24 7.32m15.93 7.36c-1.97-2.38-.81-5.68.96-6.29 2.47-.94 4.04 1.22 4.04 3.37 0 3.06-3.03 5.24-5 2.92"/><path fill="#d8d8d8" stroke="#420b26" stroke-linecap="round" stroke-linejoin="round" stroke-miterlimit="10" stroke-width="1.2" d="m26.41 37.51 1.46 3.55L39.8 6.61z"/><path fill="#fefffe" stroke="#420b26" stroke-linecap="round" stroke-linejoin="round" stroke-miterlimit="10" stroke-width="1.2" d="M29.89 36.42c0-.81.55-1.28 1.21-1.28s1.11.6 1.11 1.21c0 .68-.55 1.16-1.16 1.16-.66.07-1.16-.48-1.16-1.09"/><path fill="#d97835" stroke="#420b26" stroke-linecap="round" stroke-linejoin="round" stroke-miterlimit="10" stroke-width="2" d="m32.72 111.2 15.96 27.89c1.27 2.36.61 4.05-.45 4.05l-14.2-18.99-.76 22.76c-1.87-.21-3.13-2.49-3.33-5.79l-1.26-24.91c-3.24-5.01-6.58-8.79-11.58-9.6-6.48 1.18-11.03-3.87-11.03-9.51 0-4.16 3.54-7.49 6.99-6.38 4.65 1.48 6.72 4 7.48 9.42.65 4.28 3.63 6.74 7.58 8.06l5-1.19 1.46-6.87c-3.48-3.71-4.49-9.08-2.67-13.44 1.21-3.06 3.13-3.99 5.61-4.8.96-3.42 2.43-5.74 4.9-6.01s3.23 2.05 1.97 3.4c-1.01 1.11-2.98 1.11-2.98 4.35 4.19 2.08 5.2 7.08 3.23 11.98-1.46 3.94-4.44 3.33-6.21 5.49-2.12 2.77-2.52 6.68-3.23 9zM12.75 93.92c-3.84-.78-4.8 4.34-2.73 6.99 2.17 2.9 6.43 2.9 7.29-.2.7-2.59-1.12-6.11-4.56-6.79m24.67-7.22c-3.64 1.22-4.4 8.02-.96 9.73 3.19 1.49 4.95-2.38 4.65-5.37-.3-2.66-1.77-4.97-3.69-4.36"/><path fill="#d8d8d8" stroke="#420b26" stroke-linecap="round" stroke-linejoin="round" stroke-miterlimit="10" stroke-width="1.2" d="m27.17 111.2 2.47-1.15 19.04 30.12-.45 1.88z"/><path fill="#fefffe" stroke="#420b26" stroke-linecap="round" stroke-linejoin="round" stroke-miterlimit="10" stroke-width="1.2" d="M31.91 116c-.61-.33-.81-1.08-.51-1.69.31-.61 1.06-.81 1.67-.51s.81 1.12.5 1.66c-.35.61-1.11.88-1.66.54"/><path fill="#f9f4dd" stroke="#420b26" stroke-linecap="round" stroke-linejoin="round" stroke-miterlimit="10" stroke-width="2.7" d="M52.37 35.33c-6.02 5.22-5.26 13.39-1.92 17.21 2.98 1.88 5.95 7.27 6.86 10.79.61 1.29 5.83.68 7.8-2.91 1.01 5.69 1.01 11.24 5.67 14.24l1.98-1.51c.5 2.95 3 4.6 4.46 5.34l5-3.83c1.97 3.09 6.02 5.28 8.49 5.95l7.59 3.31 6.94-2.25c3.49-.66 8.38-3.18 10.41-5.64l1.97 1.51c2.02-1.51 5.11-4.12 6.13-6.42l1.97 1.42c2.43-2.29 3.9-6.91 3.9-11.43 1.97 2.01 5 3.8 8.44 2.9 1.47-5.74 5.98-8.91 7.75-11.94 3.24-5.69 4-12.13-2.89-17.6-7.09-5.16-9.2-13.36-15.68-17.48-1.62-.88-3.14-.88-4-.88-2.99-4.01-10.02-6.07-14.01-6.07l1.42-1.89c-5.41-1.54-9.36-.47-12.35 2.46-2.98-2.93-7.59-4-12.08-2.46l1.97 1.89c-5.97-.41-11.47 3.14-14.46 6.07-4.9-.47-8.34 4.11-12.29 9.64-2.32 3.16-5.56 5.78-9.07 9.58"/><path fill="#fefffe" d="M124.2 19.11c3.94 0 5.41 2 8.9 7.23 3.03 4.59 7.08 7.59 9.51 9.77 4.1 3.46 4.56 8.12 3.55 12.51l-1.01-4.39c-.51 4.04-2.99 9.79-6.99 14.18-4.55-.75-6.02-9.31-5.56-17.08.45-6.47-4.41-12.9-8.4-16.01 3.94 2.01 5.91 4.44 6.92 7.4-1.97-2.01-4.95-2.96-6.92-2.96 3.44 1.5 4.9 4.44 4.45 9.98l-1.01 8.88c-1.47-3.46-3.95-5.47-7.45-7.02 1.47 2.02 3.5 5.81 3.04 9.12-2.99-4-8.5-5.56-16.03-5.08l2.98-2.49-8.09.47 2.53-1.61c-2.48-.95-5.47-.95-7.44-.41l.96-1.45c-2.99.6-5.46 1.86-7.94 4.48l-2.48 1.01 1.47-2.02c-2.98 0-6.02.61-8.49 1.54-4.45 1.56-8.4 4.55-10.43 8.59-1.47-4.65-2.03-12.15-.56-17.05l-3.95 2.43c.51-5.47 4.46-11.43 7.95-13.92-3.49 1.45-5.97 3.9-7.44 6.52 1.97-5.46 5.97-10.62 10.94-13.61l-3.95.51c1.97-2.99 6.48-5.01 9.96-5.52l-2.98.51c4.45-1.52 8.95-1.52 13.4 0l-2.48-3.51c2.98 0 4.95 1.04 6.42 3.51 1.97-3.51 5.47-4.46 6.94-4.46l-1.47 3.95c4.45-1.96 10.47-1.96 15.98 1.53l-1.98.47c2.48.53 4.96 1.54 6.69 3.01-2.03 0-2.54 0-4.06.51 1.02 0 2.03 0 4.52.48"/><path stroke="#420b26" stroke-linecap="round" stroke-linejoin="round" stroke-miterlimit="10" stroke-width="2.7" d="M110.6 59.16c.96 1.6-1.01 4.97-6.93 4.5-3.9-.33-5.42-3.24-5.42-5.25-.46 2.01-2.48 4.92-6.98 5.25-4.9.35-6.26-2.55-5.61-4.23"/><path fill="#420b26" d="M94.05 68.76c2.48 1.49 6.43 2.5 9.87 0-1.47 2.97-6.83 4.66-9.87 0M97.95 59.02c-3.85-1.36-5.26-5.61-5.26-7.29 0-2.63 2.98-3.11 5.96-3.11 2.99 0 5.98.48 5.98 3.11 0 1.68-1.92 5.93-6.68 7.29M83.74 37.51c-3.94 0-5.51 3.82-5.51 6.11 0 3.5 2.48 5 5.45 5 3.45 0 5.01-2.51 5.01-5 .05-3.07-1.97-6.11-4.95-6.11"/><path fill="#fefffe" d="M84.75 40.55c-1.12 0-1.52.78-1.52 1.46 0 .94.66 1.34 1.31 1.34.92 0 1.32-.81 1.32-1.41 0-.88-.61-1.39-1.11-1.39"/><path fill="#420b26" d="M113.7 37.51c-3.95 0-5.51 3.82-5.51 6.11 0 3.5 2.48 5 5.45 5 3.44 0 5.01-2.51 5.01-5 .05-3.07-1.97-6.11-4.95-6.11"/><path fill="#fefffe" d="M114.2 40.55c-1.11 0-1.51.78-1.51 1.46 0 .94.65 1.34 1.31 1.34.91 0 1.32-.81 1.32-1.41 0-.88-.61-1.39-1.12-1.39"/><path fill="#e8d6c2" d="m97.18 33.66-1.97-6.4-5 1.45c1.97 0 2.93 3.02 1.97 4.95-3.44-3.5-7.94-2.95-11.93-.94l2.98.54c-6.97 1.45-11.94 7.36-13.96 15.01l-1.02-4.04c-.5 4.39-.5 8.98 1.02 11 2.48-6 7.95-7.08 10.98-7.57 2.98-.54 8.49 0 9.96.96-2.48-1.5-1.01-2.51.96-2.51 2.48-.95 4.95-1.48 6.93-1.48 1.46-.47 4.45 0 6.53 1.01l-2.48-2.49c2.48-.54 6.98 0 9.46 2.01 1.51-1 4.49-1 5.96 0-.96-2.55-2.93-6.03-5.96-7.04-3.95-1.49-5.46 0-7.43 2.03-.97-3.05.5-7.03.5-8.04-2.99 0-3.49 2.02-5.52 4 0-2.99 1.97-5.95 4.46-8.85-3.5.98-4.97 3.45-6.44 6.4M125.7 54.22c-2.95-4.04-8.46-5.6-13.46-6.07 7.52.47 13.96 5.06 15.93 11.46l-.96 8.4-1.97-4.95c0 3.46-1.47 6.45-3.95 8.4 1.97-3.92-.56-10.7-2.03-13.19l1.97-1.15c-2.98-2.97-6.47-4.99-14-6.94 7.53-1.56 14.51 0 18.47 4.04"/><path fill="#e8d6c2" d="m70.28 32.72-1.97 4.38-1.02 8.54.46 2.98-1.02 8.43-1.46 1.36-1.98 3.5-2.98.54-3-4.04-3.94-14.18-1.01 4.04c-1.01-3.04 1.01-9.54 3.99-12.56-3.94 2.41-5.9 6.9-6.91 9.45-.96-4.03 1.51-8.06 5-11.03 4.93-3.97 7.41-8.38 9.88-11.41 3.43-4.46 6.41-5.59 8.89-4.6l-1.97.51c2.48-2.52 4-2.99 5.98-2.99-1.98.47-3.95 1.97-4.97 2.99 2.99-2.52 5.98-3.99 8-3.99-5.01 1-8.96 2.97-11.94 6.47-2.99 2.49-5.46 6.99-10.97 11.54-3.95 2.96-6.94 6.01-7.39 10.5-.51 3.97.5 7.03 2.47 8.58l1.01-6.09 2.92 6.09 1.47-7.5 1.97 11c2.99-2.96 3.5-10 2.94-14.95l2.99-4.03 1.57.85 1.98-4.99 3.94-3.87zM78.23 56.17c-2.99 1.49-4.96 4.59-5.98 11.37l-1.47-2.52c-1.56 2.52 0 5.5 1.47 7.52l2.99-8 .96 5.98c-.96-5.98.52-11.9 2.03-14.35"/></svg>