<svg xmlns="http://www.w3.org/2000/svg" width="200" height="200" fill="none" viewBox="0 0 200 200"><path fill="#d6c5b6" d="M100.39 194.71c26.47 0 52.92-4.69 52.92-9.98 0-3.58-17.5-7.78-52.92-7.78-26.47 0-50.45.81-68.6 5.13-3.51 1.75-3.33 4.76.83 5.91 15.09 4.37 32.34 6.72 67.77 6.72"/><path fill="#fefce7" stroke="#420b26" stroke-linecap="round" stroke-linejoin="round" stroke-width="2.5" d="M30.56 137.65c3.56-9.61 9.36-10.29 11.41-10.64 1.1-.2-2.73 5.05-2.73 10.91 0 6.84 2.79 12.46 6.38 13.19l8.6 18.72c-7.13 1.21-16.81.39-22.81-8.02-1.23-1.87-1.23-2.49-.34-2.14 1.74.69 3.92.51 4.75.51-5.19-2.97-11.7-11.32-8.8-20.27 1.23-2.9 1.99-2.7 2.4-1.2z"/><path fill="#e8d0b3" d="M31.04 147.81c-2.45-3.98-1.97-8.9-.8-11.04l.69.95c1.1-4.04 4.86-8.71 9.03-10.03-3.24 5.52-2.79 15.97.8 21.02l2.97 2.4 1.36 7.8c-4.33-.95-10.67-5.56-14.05-11.1"/><path fill="#fefce7" stroke="#420b26" stroke-linecap="round" stroke-linejoin="round" stroke-width="2.5" d="M127.62 144.04c5.12 4.82 7.23 11.27 6.75 16.04l-1.56-1.24c.62 5.27-1.09 11.38-3.74 14.48l-6.61-.31-.88-12.42 4.23-11.53z"/><path fill="#ccae93" d="M129.31 165.81c.97-3.08.9-6.52-.3-8.33l-1.74 2.67-1.04 5.66z"/><path fill="#fefce7" stroke="#420b26" stroke-linecap="round" stroke-linejoin="round" stroke-width="2.5" d="M49.76 177.01c-3.59-2.97-6.83-9.15-6.62-14.85s2.52-9.6 4.83-13.3l7.75-13.05-2.17-.21c3.59-4.53 7.18-13.94 7.18-15.49l-3.83-.62 7.96-14.73 5.56-2.9 30.34 1.55 21.06-1.24 4.58 6.77 3.91 11.17-3.66-.83c2.38 3.48 4.22 12.5 3.66 16.32l-2.69-2.46c.35 4.07-.35 10.62-.97 11.48l-3.91 15.53-1.23 12.41c3.91-.48 13.86.35 14.21 7.04.1 4.21-2.84 5.16-6.75 5.16h-6.37c-.88 2.35-3.89 4.25-10.19 4.25-7.69 0-11.28-3.69-12.17-9.94l-9.62.94c-.69 6.62-2.73 11.17-12.76 11.17-5.63 0-8.07-2.24-9.24-5.17-2.52.86-5.17 1.27-7.83 1.2-6.68-.2-13.67-1.61-13.38-7.61.07-1.48.62-1.68 2.35-2.59"/><path stroke="#a88872" stroke-linecap="round" stroke-linejoin="round" stroke-width="1.5" d="M124.92 174.91c3.8 0 7.24 2 7.31 5.99"/><path stroke="#a88872" stroke-linecap="round" stroke-linejoin="round" stroke-width="1.5" d="M129.11 176.7c1.6 1.08 1.96 2.96 1.61 4.7"/><path fill="#e8d0b3" d="M51.21 182.63c.62-5.39 5.71-8.9 13.8-8.42l4.64 2.49-1.16-3.69-2.25-12.86-1.23-9.04-1.88 1.8c-1.3-5.42-1.02-11.08.63-16.59-.83 4.45-.63 12.67 1.05 15.41l1.5-3.32 2.9 13.5.9 2.27c1.23 4.59 1.58 10.94.34 15.42-2.04 3.31-1.76 6.31-3.32 6.62l-1.17-.48c.69-2.67 1.17-7.03-3.41-8.53 2.49 1.7 3.07 4.5 2.18 7.55l-4.66.56c.56-3.1 0-5.41-1.73-6.41 1.39 1.85 1.25 3.79.7 6.13l-3.59-.62c-1.94-.48-3.14-.9-4.24-1.79M125.81 144.04l-1.68 14.8-1.53-1.22c-1.57 5.52-2.39 12.7-1.84 19.29 2.97 1.8 3.59 7.2 1.41 9.96l-1.96.69c1.51-2.8 1.23-6.55-1.67-7.96-1.47-5.49-.65-15.25 2.97-22.29l-1.37.41c2.9-7.81 4.71-19.49 3.79-26.48l3.2 2.59c.14-4.95-1.39-9.31-2.69-11.76l2.76.62-3.27-9.27 3.34 2.49-3.59-10.46 4.15 5.66 1.79 6.65.69 2.35-3.04-.83c1.97 2.86 3.46 10.18 3.11 14.93l-2.76-1.58-.35 6.18z"/><path fill="#ccae93" d="m90.14 149.33-.42.28-.41-1.2-.83-1.85c-.82 4.07-1.24 11.43 0 15.56l-.34.61.89 13.9v5.32l-1.37 5.54-3.9 1.62c.89-2.45.41-4.35-.55-5.3-.28 2.92-.97 4.62-2.07 5.13h-3.9c-1-1.02-1.07-3.13-.59-5.13-1.3.95-1.64 2.82-1.44 4.62l-2.97-.94-1.3-2.73 1.23-6.05c.97-3.7-.2-12.56-2.38-17.58l.52-.95-2.97-11.98.8 1.81.89-2.8 2.18 2.12 2.9 7.33 2.47 4.95 4.11.51 5.13-3.07-.55-1.94 1.24-.45-1.24-5.55-2.65-11.69 1-2.52 2.89 5.52 1.24-1.87 3.59 6.66 1.59 1.41 2.38 3.69c2.72-.48 6.76-4.59 9.07-7.55l-1.24 5.52-2.97 6.76-4.31 2.01c3.52-.92 5.37-2.18 6.25-3.04l-1.35 12.42-.69-1.42-1.24 4 .83-4.86-.35 11.77-.48-5.01-.97 5.8-7.24.89-.48-17.48v-12.79"/><path fill="#e8d0b3" d="m120.21 123.03-2.08 4.88-1.17 1.79.21 1.91-2.11-1.91c-.41 5.26-2.45 13.99-5.04 18.37l.22-4.89-2.49 6.69-1.67.89 2.28-6.65-2.9 2.93-2.84 6.9-1.49 2.07 2.01-6.14-1.31-.54c1.38-2.15 2-4.05 2.82-6.7-2.62 3.03-5.61 6.29-8.58 7.24l-6.14-8.16-1.52 1.91-4.79-7.3-1.91-6-.95 4.76-2.35-5.86 2.73-3.48 5.79 3.17 14.48 9.15 7.55-4.92z"/><path fill="#c62828" stroke="#420b26" stroke-linecap="round" stroke-linejoin="round" stroke-width="2.5" d="M68.41 100.56c5.7 13.41 19.35 26.93 33.62 35.04 10.93-8.11 18.25-18.49 21.9-31.36l-2.9-3.23-4.24-.79-8.63 2.79-11.54 2.72-10.11-.97-11.57-5.83z"/><path fill="#a01919" d="M73.21 103.14c4 4.62 10 9.31 15.62 12.21-5.9-2.34-13.21-8.34-15.62-12.21M117.07 104.24c-2.9 3.97-7.96 9.39-12.21 11.98 5.07-1.49 11.37-7.41 12.21-11.98"/><path fill="#a01919" d="M70.07 100.01c3.59 5.93 13.96 9.72 23.97 9.72 8.89 0 17.13-4.62 23.65-9.72l-2.56-2.52-7.89 3.45-9.38 3.48-9.17-.38-11.25-5.11z"/><path fill="#fefce7" stroke="#420b26" stroke-linecap="round" stroke-linejoin="round" stroke-width="2.5" d="M69.03 27.11c-4.65 0-7.89 1.23-10.93 6.55-2.97 5.19-6.14 7.78-11.33 12.17-5.19 4.38-5.6 9.34-4.71 12.3l1.23.28c.62 4.07 2.67 8.42 4.54 11.74.69 2.52.62 3.82.9 5.96.48 2.05 4 2.33 7.03.35.55 2.96.69 5.35 1.65 6.14l2.9-1.94c-.55 3.48 0 7.17 1.9 9.25l2.45 2.52 1.16 4.82 3.52 1.69c3.59 3.33 8.87 5.68 13.8 6.79l-.97-2.9c2.97 2.83 6 3.69 10.07 3.69 4.51 0 8.89-2.66 11.52-4.6l-.62 1.6c4.58-1.21 9.09-4.76 12.47-8.02l4.53-1.88 7.27-6.41 2.9-.96.82-4.17c2.73.96 5.83.76 6.66-1.97 1.42-4.89 6.14-9.07 9.45-15.06l1.8-.28c2.73-7.05 1.77-12.63-5.22-18.39-4.16-3.55-6.96-7.25-8.06-9.33l-.04-1.14c-2.65-4.69-6.17-6.56-11.1-7.51-1.87-2.32-4.53-3.67-5.15-4.15l.55-.69c-5.09-4.07-11.54-4.69-14.99-4.21l.49-2.21c-3.41-.89-8.21 0-10.66 3.62-2.8-3.03-6.76-4.24-9.79-3.82-.55.79-.21 2 .27 2.69-4.72-1.03-10.41.14-13.21 2.55l.83 1.24c-1.87.55-3.1 1.51-3.93 3.69"/><path fill="#e8d0b3" d="M133.86 36.05c-3.04-3.14-7.45-4.9-12.55-4.35 3.65-1.59 8.58-1.04 12.55 4.35"/><path fill="#f4efd7" d="M118.72 36.12c4.44 1.23 8.41 3.89 9.97 10.79 1.62 7.33 3.72 18.2 6.69 22.89l4.24-6.66 1.24 3.42c1.45-2.8 2.76-6.69 2.76-10.31 1.55 1.16 4.04 3.62 5 7.03 2.04-6.59-.41-12.24-6.21-16.37-3.72-2.73-7.48-8.06-9.45-10.79-3.72-3.49-9.72-2.87-14.24 0"/><path fill="#e8d0b3" d="M116.34 23.22c-2.65-.86-4.31-.8-5.21 0 2.8.27 6.59 1.44 9.08 2.92-.49-1.21-1.94-2.31-3.87-2.92M101.83 41.71c2.31-1.66 6.58-1.94 12.1.71-4.17-.41-6.52.35-7 2.03 5.55-.55 10.34 2.76 13.59 10.31 1.23 2.52 2.96 2.17 3.72.27l-.31-9.99 2.21 1.07c-1.1-4.1-4.35-8.04-7.42-9.99 3.97.62 7.93 3.65 9.42 8.78 1.62 5.93-.87 12.03-.45 20.7.28 6.31 2.45 12.43 5.93 14.44-2.38 1.1-4.45-.93-6-4.44-3.38-7.81-.97-17.26-2.27-24.77-.63-3.38-3.42-6.59-5.32-8.41 1.1 2.03 2.72 4.62 3.21 7.35-2.38-3.11-7.18-7.76-14.21-7.35-7.69.48-9 3.69-10.17 8.48-1.24-3.69-.69-6.79 2.97-9.19"/><path fill="#f4efd7" d="M70.66 31.15c-4.94.86-8.25 3.89-12.49 10.76-2.86 4.65-8 8.13-12.04 9.13l-1.72 4.79-1.17-1.93c-1.38 4.03-.1 9.86 3.89 15.42.76-3.21 1.98-7.11 3.39-10.21l2.45 8.51 1.79-1.51c2.1-1.73 3.41-6.1 4.31-11 .96-4.9 4.27-10 7.06-12.96l-6.1 2.96c2.18-4.38 5.21-10.21 10.63-13.96"/><path fill="#e8d0b3" d="M69.21 28.94c-3.73.14-7.38 1.79-9.56 4.52 2.04-1.59 6.48-4.11 9.56-4.52"/><path fill="#f4efd7" d="M70.52 42.9c4.03-2.45 7.06-2.31 10.62.72 3.52 3.11 3.31 10.28-.52 14.51-.48.63-.27 2.6 2.04 1.91 2.76-1 5.82-1.35 8.48-1 2.48.35 3.97-.28 5.93.59 1.65.79 2.07 1.24 3.1 1.17 1.1-.07 1.1-1.76-.24-3.25-2.79-3.1-3.42-10.89 1.9-15.84-3.59 1.33-6.62 4.33-8.59 4.4-1.52.07-2.48-1.42-4.45-1.49-1.66-.06-3.03 1.14-4.55-.17-3.1-2.74-8.11-4.41-13.72-1.55"/><path fill="#e8d0b3" d="M57.07 76.18c2.45-8.04 8-14.04 17.1-14.04 3.66 0 6.69-2.13 8-6.03-.41 3-1.76 4.76-3.24 5.82-8.1-.44-14.45 3.18-17.9 11.42-1.31 3.31-2.07 5.46-1.93 8.56l-2.03.69c-.76-2.28-.76-3.93 0-6.42"/><path fill="#420b26" stroke="#420b26" stroke-linecap="round" stroke-linejoin="round" stroke-width="1.5" d="M107.41 74.94c-2.27-.83-3.17-.28-2.76.79-3.72 4.07-7.44 3.9-11.41 2.43-3.96-1.5-4.31-3.02-4.83-4.05-1.76 3.24-4.03 4.05-7.27 3.51-2.52-.48-3.42-1.58-4.18-3.51-1.03 0-1.89 1.03-.93 2.9 1.1 2.21 2.9 3.03 5.11 3.65 2.07.62 2.27 2.55 2.07 5.35-.14 3.48 3.1 5.42 6 5.42 2.96 0 4.62-1.66 6.65-4.7 2.66-4.07 7.55-8.26 10.07-10.79.83.1 1.58.52 2.41 1.07z"/><path fill="#e86e65" stroke="#420b26" stroke-linecap="round" stroke-linejoin="round" stroke-width="1.5" d="M100.03 80.94c-3.9-.28-9.55-1.72-12.72 1.01-2.59 2.22-3.35 6.12-1.17 7.75 2.72 2.01 7.1.41 8.58-2.59 1.31-2.21 3.21-4.55 5.31-6.17"/><path stroke="#420b26" stroke-linecap="round" stroke-linejoin="round" stroke-width="1.5" d="M89.72 85.11c-.69-2.14.9-4.17 3.21-4.45"/><path fill="#e8d0b3" d="M107.93 62.76c5.9 0 12.1 2.35 15.69 8.87-2.49-3.22-7.56-7.21-15.69-8.87M122.24 76.11c1.52 2.53 1.52 7.65-2.03 12.03-1.04 1.49-2.97 2.91-4.46 3.94.97-3.87.48-7.87-.82-10.66l-2.18 2.89c-.89-4.37-4.79-6.82-6.62-8.13 2.59.48 6.9 2.26 9.08 5.77 1.51-1.8 4.1-4.33 7.03-5.84"/><path fill="#29001a" d="M109.03 50.9c-3.96-.27-6.86 3.07-6.62 7.23.21 2.74 2.31 4.08 6.21 4.08 3.89 0 5.14-2.51 5-5.17-.21-3.21-2-6-4.59-6.14M76.82 50.35c-3.96-.27-5.69 3.76-5.48 6.69.28 2.73 2.07 4.14 4.73 4.14 3.14 0 5.86-3.56 5.65-6.87-.21-2.2-2-3.75-4.9-3.96"/><path fill="#420b26" stroke="#420b26" stroke-linecap="round" stroke-linejoin="round" stroke-width="1.5" d="M88.83 62.76c-4.38 0-6.21 1.48-6.21 3.87 0 2.59 3.69 6.14 6.41 6.14 3.14 0 6.73-3.69 6.73-6.14 0-2.39-2.14-3.87-6.93-3.87"/><path fill="#855851" d="M88.83 64.42c-2.32 0-3.01.41-3.01.9 0 .55 1.31.93 3.39.93 2.13 0 3.51-.38 3.51-.93 0-.49-1.1-.9-3.89-.9"/><path fill="#fefce7" d="M109.31 54.31c-.9 0-1.17.52-1.17 1.08 0 .62.55 1.03 1.17 1.03s1.14-.48 1.14-1.03c0-.56-.45-1.08-1.14-1.08M77.79 53.35c-.76 0-1.21.62-1.21 1.27 0 .76.55 1.21 1.21 1.21.69 0 1.14-.55 1.14-1.21 0-.65-.55-1.27-1.14-1.27"/><path fill="#e8d0b3" d="M72.31 91.95c1.52 2.36 4 4.88 5.62 5.91l.55-3.24c1.73 2.8 4.45 5.01 7.18 5.66-1.07-1.35-1.49-2.86-1.49-4.03 2.55 2.51 4.45 3.31 8.07 3.31 4.51 0 6.9-1.7 10.9-5.45l.62 2.59c3.38-3.49 7.27-7.79 6.38-12.39-.69-3.37-3-5.4-4.52-6.35-2.48 2.7-7.38 6.15-9.49 9.66-2.17 3.7-5 4.53-7.51 4.09-2.96-.56-5-2.8-5.41-5.7-.28-2.04-.66-4.8-2.59-5.86-2.07-1.14-4.11-4.04-4.59-5.11-2.89 2.45-5.79 10.59-3.72 16.91"/><path fill="#a01919" stroke="#420b26" stroke-linecap="round" stroke-linejoin="round" stroke-width="2.5" d="M64.04 93.21c-3.73-4.23-6.77-7.27-13.8-7.2-2.62-.07-5 .45-8.03 1 1.55 4.9 6.69 10.68 12.55 10.68-3.04.55-7.14 4.62-9.62 12.04 6.82 1.35 14.07-.72 18.69-5.76l3.24-2.21 1.17-5.51z"/><path fill="#a01919" stroke="#420b26" stroke-linecap="round" stroke-linejoin="round" stroke-width="2.5" d="M65.21 93.21c-3.04 0-4.07 3.52-3.25 6.04.9 2.96 3.25 3.17 4.55 1.76 1.9-2.07 2.42-7.8-1.3-7.8"/><path stroke="#420b26" stroke-linecap="round" stroke-linejoin="round" stroke-width="1.5" d="M45.14 90.04c3.31-.62 7.27-.41 11.24 1.18M50.24 107.21c2.97-2.97 5.93-5 9.48-6.51"/><path fill="#ffc8a3" stroke="#420b26" stroke-linecap="round" stroke-linejoin="round" stroke-width="2" d="m199.31 116.46-9.03-21.24c-1.62-3.97-4-5.45-7.8-6.31l-22.45-6.62c-2.62-.97-4.9-.83-7.07.41-6.24 3.62-15.65 8.62-18.14 12.24l4.59 3.87 4.62 1.41 4.18 4.61 6.48 4.9 8.52 4.89 4.3-.61 4.62-9.49-4.51 5.59-2.49-6.38.62-6.38-2.03 1.41-8.21-4.65-6.48 4.58-1.31-1.72.49 5.45 2.41 3.76 5.2 3.76 1.04-3.83c2.48.96 5.93.9 8.27-.38l-.2-5.72 1.31-3.9.89-.96-1.38 2.66-10.62-5.8-.34-.96c-1.03 2.45-4.62 4.99-8.66 5.2-2.96.14-4-.21-6.44-.69-3.56-.76-8.45-2.9-10.07-6.34-1.17-2.8-6.73-3.07-8.38-.14-1.17 2.24-.69 3.93-1.72 5.34-1.56 1.97-2.59 3.14-1.76 5.59.96 2.96 4.48 3.03 6.93 2 3.48-1.45 6.44.89 8.48 2.41 3.55 2.72 7.69 1.1 12.14 3.2 5.55 2.59 9.93 8.56 18.55 7.8 7.86-.73 7.27-2.45 7.27-2.45l-1.03-3.55 3.03-6.21-3.03 2.83-2.38-4.03 1.45-6.86-1.55 1.86"/><path fill="#f0a885" stroke="#420b26" stroke-linecap="round" stroke-linejoin="round" stroke-width="2" d="m199.31 123.03-9.62-24.34c-1.87-4.93-3.41-6.68-8.31-8.27l-21.21-7.31c-3.45-1.16-5.41-.89-7.86.52-4.69 2.76-12.14 7.21-15.52 10.34l2.18 1.04c2.65-.35 5.96-.56 7.99 1.1 2.18 1.86 1.45 5 0 7.03 2.66 1.69 8.17 6.28 10.9 7.77 3.31 1.85 6.27 2.58 8.35-.8 1.86-3.17 3.27-2.04 3.96 1.45.49 2.55-3.1 2.45-3.1 2.45 2.55.48 4.27-.52 4.27-.52.97.48-1.17 1.72-7.62 1.72-5.03 0-10.76-6.41-17.31-9.48-4.17-1.97-8.79-2.83-12.28-.79-3.37 1.86-2.96 6.24 2.11 10.62 6.69 5.76 12.97 8.28 20 14.04 4.79 4.06 7.89 13.31 22.55 17.61 3.31 1.03 4.97 1.03 8.52 4l12 12.42z"/><path fill="#b56856" d="m199.31 154.69-9.38-8.13c-3.11-2.45-8-2.14-12.9-3.8-6.52-2.27-10.9-6.65-14.72-11.55 2.79 6.21 8.41 13.04 18.9 15.9 2.96.82 3.92 1.51 6.41 3.52l11.69 10.21z"/><path fill="#c66636" stroke="#420b26" stroke-linecap="round" stroke-linejoin="round" stroke-width="2.5" d="M13.21 53.76c-9.03 5.59-10.38 24-3.8 32.49 2.31 3.1 5.55 4.31 5.14 10.17-.41 5.51-4.31 16.69.07 21.51 2.31 2.22 6.45 1.18 7.69-2.58 2.9-7.59-1.38-17.93-.14-22.31.9-3.41 2.97-4.23 5.69-7.68 7.35-9.18 4.76-26.25-5.07-32.39-3.03-1.65-6.66-1.1-9.58.79"/><path fill="#d68a5a" stroke="#420b26" stroke-linecap="round" stroke-linejoin="round" stroke-width="1.5" d="M13.83 56.8c-7.11 5.96-6.97 21.64-1.07 28.83 1.96 2.51 4.45 3 5.07 5.42 1.24 4.65-2.42 16.16-1.7 22.23.42 3.45 2.7 4.93 4.42 2.35 3.73-5.69-.41-17.32.62-22.42.55-3.17 1.59-3.99 3.9-6.58 7.1-7.99 6-20.72-.69-28.7-2.73-3.03-7.45-3.55-10.55-1.13"/><path fill="#d8b89a" stroke="#420b26" stroke-dasharray="0.5 3" stroke-linecap="round" stroke-linejoin="round" stroke-width=".7" d="M17.07 57.14c-6.86 2.9-7.59 17.31-5.86 21.37 2.1 5.25 4.82 7.22 6.62 7.22 2.31 0 6.34-2.52 8.31-7.97 2.48-7.03.52-16.44-5.83-20.62-.97-.62-2-.55-3.24 0"/><path fill="#c66636" stroke="#420b26" stroke-linecap="round" stroke-linejoin="round" stroke-width="2.5" d="M144.72 15.21c2.31-2.66 9-6.48 10.41-7 3.32-1.17 6.08 1.56 8.73 5.52 3.55 5.21 12.07 17.42 14.8 23.18 1.96 4.31 1 7.06 4.37 11.99 3.14 4.66 10.1 13.11 12.18 16.83 2.55 4.59.41 9.21-3.39 9.69-5 .62-7.65-7.8-9.69-13.41-2.96-8.25-6.41-13.38-13.37-11.18-2.8.9-4.73 1.86-6.07-.82l8.24-5.39c1.96-1.3 2.55-2.91.82-5.91l-14.06-23.77c-.97-1.73-1.73-1.8-3.56-.63l-8.69 4.9c-2.31 1.35-3.41-1.27-.72-4"/><path fill="#d68a5a" d="M193.03 67.62c-2.9-5.89-10.55-14.72-12.58-17.92-2.32-3.66-1.63-7.28-4.42-12.17-3.31-5.69-10.41-16.77-14.86-23.8-2.14-3.55-4.66-4.72-6.62-3.96 1.62-.21 2.72.41 4.17 2.65l15 24.63c2.04 3.4 1.41 6.92-1.07 8.85l-7.52 4.93c2.49-.75 5.28-2.62 9.11-1.79 4.1.97 6.48 6 8.93 12.69 1.96 5.69 5.28 12.1 8.24 11.83 2.72-.28 2.93-3.41 1.62-5.94"/><path stroke="#420b26" stroke-linecap="round" stroke-linejoin="round" stroke-width="1.5" d="m146.31 23.22 10.86-6.9M147.72 25.6l10.86-6.9M149.14 27.91 159.99 21M150.55 30.25l10.86-6.9M152.31 32.56l10.86-6.9M153.72 34.9l10.86-6.9M155.51 37.21l10.86-6.89M156.93 39.56l10.86-6.9M158.34 41.87l10.86-6.9M159.76 44.21l10.86-6.9M161.17 46.52l10.65-6.75"/><path stroke="#420b26" stroke-linecap="round" stroke-linejoin="round" stroke-width="2" d="m130.03 97.21 2.8 1.8M126.14 96.11l.48.14"/><path fill="#ffc8a3" stroke="#420b26" stroke-linecap="round" stroke-linejoin="round" stroke-width="1.5" d="M130.96 106.11c.97-1.35 3.17-1.97 7.14.14 2.86 1.41 4.11 1.96 1.83 5.51-1.72 2.97-2.9 1.55-4.83-.13-2.72-2.45-4.76-4.42-4.14-5.52"/><path stroke="#420b26" stroke-linecap="round" stroke-linejoin="round" stroke-width="2.5" d="M146.21 124.11c-1.31 2.9-1.93 8.8.96 10.93 2.66.97 4.97-1.13 6.14-5.51M154.13 131.14c.97.49 3.52 3.32 4.08 4.87-1.45 2.34-3.28 3-4.9 2.24-2.07-1.24-1.18-4.34 0-7.11M136.79 117.52c-1.24 2.97-2.17 7.28.31 9.04 2.31.96 5.21-.55 7.03-3.28"/><path fill="#c66636" stroke="#420b26" stroke-linecap="round" stroke-linejoin="round" stroke-width="2.5" d="M19.34 37.83c3.97 2.62 7.8-.48 13.21-5.37 4.79-4.52 13.41-14.8 13.41-20.32 0-4.38-5-7.03-9.24-4.72-5.96 3.1-16.96 15.38-20.41 21.14-1.76 3.45-1.17 7.17 3.03 9.27"/><path fill="#b55129" d="M17.62 33.25c1.62 2.31 4.86 1.79 7.59.21 5.41-3.14 14.96-14.76 17.51-19.56 1.49-3.17.14-5.48-3.51-5.48-5 0-16.25 13.49-18.9 16.79-2.66 3.45-4.18 5.94-2.69 8.04"/><path stroke="#705353" stroke-linecap="round" stroke-linejoin="round" stroke-width="1.5" d="m25.93 39.36 1.73 3.06.27.28 21.9-25.69-2.49-.86M28.52 39.15l2.45 1.76M30.24 37.46l2.45 1.76M32.83 35.73l2.45 1.76M34.55 34.01l2.48 1.76M36.21 32.29l2.48 1.75M37.93 30.56l2.48 1.76M39.62 28.84l2.48 1.75M41.34 27.11l2.49 1.76M43.03 25.39l2.49 1.75M44.76 23.66l2.48 1.76M46.48 21.94l2.48 1.76M48.21 20.22l2.48 1.75"/></svg>