<svg xmlns="http://www.w3.org/2000/svg" width="200" height="200" fill="none" viewBox="0 0 200 200"><path fill="#fefffe" d="M0 0h200v200H0z"/><path fill="#dfccb1" stroke="#35001a" stroke-linecap="round" stroke-linejoin="round" stroke-miterlimit="10" stroke-width="2.2" d="m192.07 163.55-20.59-28.52c-1.37-2.02-2.86-2.42-5.76-2.42h-39.71c-2.89 0-4.67.4-5.9 2.1l-1.39-2.1h-58.1l-1.56 1.02c-1.23-.87-2.73-1.02-4.24-1.02H32.89c-2.9 0-4.38.4-5.75 2.42L7.31 163.09c-.8 1.19-.95 1.92-.95 3.33v4.64c0 3.19 1.56 4.55 4.65 4.55h176.83c3.09 0 4.65-1.89 4.65-4.8v-4.39c0-1.13.15-1.91-.42-2.87"/><path fill="#6d342b" d="M100.92 137.03c-20.18-.62-43.04.58-43.24 5.78-.19 4.98 11.73 9.6 32.31 9.6s50-4.46 50-8.34c0-3.44-14.68-6.26-39.07-7.04M160.01 154.16c-10.59-.35-17.83 1.93-17.93 4.77-.1 2.69 7.03 5.35 17.83 5.35s16.5-2.56 16.5-5.3c0-2.43-3.55-4.37-16.4-4.82" opacity=".2"/><path fill="#b49b87" d="M19.61 175.61v19.73h13.88v-19.73"/><path fill="#997f6e" d="M19.61 175.61v19.73h3.1v-19.73"/><path stroke="#35001a" stroke-linecap="round" stroke-linejoin="round" stroke-miterlimit="10" stroke-width="2.2" d="M29.62 175.61v19.73"/><path fill="#b49b87" d="M165.72 175.61v19.73h12.7v-19.73"/><path fill="#997f6e" d="M165.72 175.61v19.73h2.5v-19.73"/><path stroke="#35001a" stroke-linecap="round" stroke-linejoin="round" stroke-miterlimit="10" stroke-width="2.2" d="M178.42 175.61v19.73"/><path fill="#6d342b" d="M187.51 166.33H11.72c-2.71 0-4.31-.55-5.21-1.47v4.54c0 3.19 1.56 4.55 4.65 4.55h176.83c3.09 0 4.65-1.88 4.65-4.79v-4.4c-.93.95-2.57 1.57-5.13 1.57" opacity=".2"/><path stroke="#35001a" stroke-linecap="round" stroke-linejoin="round" stroke-miterlimit="10" stroke-width="2.2" d="m192.07 163.55-19.83-28.06c-1.37-2.02-2.86-2.88-5.76-2.88h-40.47c-2.89 0-4.67.4-5.9 2.1l-1.39-2.1h-58.1l-1.56 1.02c-1.23-.87-2.73-1.02-4.24-1.02H32.89c-2.9 0-4.38.86-5.75 2.88L7.31 163.55c-.8 1.19-.95 1.92-.95 3.33v3.93c0 3.19 1.56 4.8 4.65 4.8h176.83c3.09 0 4.65-1.89 4.65-4.8v-4.39c0-1.13.15-1.91-.42-2.87"/><path fill="#ffd469" stroke="#35001a" stroke-linecap="round" stroke-linejoin="round" stroke-miterlimit="10" stroke-width="1.2" d="M172.63 148.16v8.97c0 3.06-7.01 5.55-14.42 5.55s-13.78-2.49-13.78-5.55v-8.97"/><path fill="#ffedb3" stroke="#35001a" stroke-linecap="round" stroke-linejoin="round" stroke-miterlimit="10" stroke-width="1.2" d="M158.41 153.11c-7.9 0-12.78-2.87-12.78-5.4s5.43-4.59 12.58-4.59c7.41 0 12.78 2.06 12.78 4.59 0 2.36-4.98 5.4-12.58 5.4"/><path fill="#ffedb3" stroke="#35001a" stroke-linecap="round" stroke-linejoin="round" stroke-miterlimit="10" stroke-width="1.2" d="M158.08 137.58c-1.42 0-7.96 2.39-9.99 5.73s.72 4.9 8.98 5.2c7.36.28 11.83-1.76 11.83-3.8 0-2.69-3.18-3.22-6.08-3.57-3.84-.46-5.6-1.22-4.74-3.56"/><path fill="#35001a" d="m153.14 158.44.57-.05c.03.22.1.37.2.47q.165.15.45.15c.2 0 .35-.04.45-.13s.15-.19.15-.31a.33.33 0 0 0-.06-.19.6.6 0 0 0-.23-.13c-.07-.03-.23-.07-.48-.14-.32-.09-.55-.19-.68-.32a.8.8 0 0 1-.27-.61c0-.15.04-.29.13-.42.08-.14.2-.24.37-.31.16-.07.36-.1.59-.1.38 0 .66.08.86.25q.285.255.3.69l-.58.03q-.045-.255-.18-.36c-.09-.07-.22-.11-.4-.11q-.27 0-.42.12c-.07.05-.1.11-.1.19s.03.14.09.2c.08.07.26.14.55.21.29.08.51.15.65.23.14.07.25.18.33.31a.9.9 0 0 1 .12.48c0 .17-.05.33-.14.48-.09.16-.23.27-.4.35-.18.07-.4.11-.66.11-.38 0-.68-.09-.88-.27s-.32-.46-.33-.82M158.91 159.47h-.63l-.29-.76h-1.29l-.28.76h-.61l1.25-3.06h.61zm-1.12-1.25-.45-1.21-.45 1.21zM159.31 159.47v-3.04h.58v2.54h1.6v.5zM162.02 159.47v-3.06h.86l.61 2.1.6-2.1h.87v3.06h-.55v-2.42l-.66 2.42h-.54l-.65-2.42v2.42z"/><path fill="#f07861" stroke="#35001a" stroke-linecap="round" stroke-linejoin="round" stroke-miterlimit="10" stroke-width="1.2" d="m74.61 156.42-44.43-11.61c-2.7-.73-4.76.95-4.76 3.34 0 1.66.77 2.73 2.87 3.35l43.81 12.06c3.66 1.07 5.79-.97 5.79-3.36 0-1.83-.97-3.14-3.28-3.78"/><path fill="#d8d8da" stroke="#35001a" stroke-linecap="round" stroke-linejoin="round" stroke-miterlimit="10" stroke-width=".6" d="m47.11 153.86 5.18-3.73 22.48 6.57c2.06.63 2.78 1.55 2.78 2.86 0 1.56-2.13 3.18-5.22 2.16z"/><path stroke="#35001a" stroke-linecap="round" stroke-linejoin="round" stroke-miterlimit="10" stroke-width=".6" d="m51.92 151.62 1.25.39M54.09 152.32l1.26.39M56.26 153.02l1.26.39M58.43 153.72l1.26.39M60.61 154.42l1.25.39M62.78 155.12l1.25.39M64.95 155.82l1.25.39M67.12 156.52l1.25.39M69.29 157.22l1.25.39M71.46 157.92l1.25.39M73.63 158.62l1.25.39"/><path fill="#f8f4d5" stroke="#35001a" stroke-linecap="round" stroke-linejoin="round" stroke-miterlimit="10" stroke-width="2" d="M143.91 91.19c-2.8 8.01-7.22 16.63-9.2 17.45l-.92-1.83c-2.41 3.24-5.07 5.33-6.09 4.66l-.47-2.79c-2.22 1.51-5.22 2.03-6.54 1.31l.42-6.68-1.8 9.99c3 3.93 4.92 9.93 2.17 15.63l-1.37-1.61c.1 2.39-.36 4.73-1.82 6.4 5.74.87 9.62 3 9.26 8.99-.27 4.35-11.37 3.94-15.64 2.78l-3.69 3.83-10.34.51-5.64-3.78-3.6-4.03c-1.42 4.69-3.29 6.92-11.55 6.41-5.85-.36-15.98-2.49-18.44-4.42-1.56-1.2-1.14-3.39-.32-4.6-3.09-1.16-4.51-1.47-5.78-1.83-3.54 1.36-8.17 1.52-9.54-.46l1.47-1.21c-3.55.31-6.3-1.57-8.37-3.86l-1.27-2.91 2.07.21c-4.58-4.7-3.66-14.44-.8-18.64l1.27 2.44c2.27-7.44 8.43-11.52 12.46-10.85 1.07.15.77 1.41-.45 2.62-4.27 4.3-3.7 14.99 3.57 16.2l2.32-5.09-.67-6.04 3-.77c-1.46-1.51 3.37-7.08 6.17-10.17l-1.56-2.96c4.12-2.64 9.87-7.58 11.48-10.87l-2.56-.77c3.1-2.79 6.35-7.39 6.76-11.37l-4.12-8.27-.67-1.67-2.8 2.69c-2.61 1.88-8.09 2.7-9.56 1.19-.77-4.29-2.94-5.4-5.69-7.69-3.09-2.29-5.01-5.58-5.63-9.41l-1.22.77c-2.07-3.29-1.5-9.54 3.07-13.89 4.27-4.08 8.24-7.37 9.71-10.56l-.92-.92c3.15-4.59 7.07-6.57 14.33-7.54 1.61-1.98 3.32-4.17 5.64-5.28l-2.12-.41c3.25-3.05 8.29-3.87 12.86-3.31l-.67-1.66c3.84-1.11 7.96.1 10.03 2.49 2.66-3 6.49-3.61 9.84-3.61 1.92 0 2.44.56 1.47 2.02 5.59-.41 11.79 1.12 12.36 3.51l-1.02 1.88c4.99-1.27 9.26 1.22 13.23 6.65 3.2 4.4 7.13 4.96 11.1 7.87 5.59 3.93 4.72 9.92 4.15 12.21l-1.07-.62c.42 4.94-2.09 9.19-3.91 11.88-.77 1.21.1 3.8 0 4.62-2.27 2.08-7.55.62-10.2-1.26l-.57 1.16-.15 6.4c-.67 3.39-1.49 4.6-2.76 5.11l-.92-1.41c-1.56 5.19-4.51 8.63-7.96 10.3l-1.32.51 4.57 11.79c3.69-6.5 7.43-9.5 12.46-8.68 2.27.41 3.35 1.28 4.37.67l2.37-1.98-1.76-3.29-4.57-.05c-.46-.87.85-2.28 2.97-2.49 4.42-.41 7.42 1.98 10.62 4.62l3.4.2 4.57-4.74 2.51-.46c1.46 1.56 4.21.46 6.13-.7 5.28-2.14 8.04-3.01 15.76-3.01 5.38 0 7.84 1.72 7.84 3.91 0 2.03-1.27 3.24-3.03 3.29-8.26.41-15.52 2.02-22.34 5.5l-1.27 2.39-1.76.3 1.17 1.62-2.51-.51 1.12 1.88-2.41-.41 1.27 1.73-1.87.92 2.61 4.39c4.07 5.43 8.64 10.22 16.31 15.21 2.7 1.83 2.45 4.52.04 5.68-3.2 1.51-10.26-3.43-15.04-8.37-3.1-3.18-5.22-7.83-7.92-8.69l-3.2-.41-2.7-5.54 2.66-3.44-2.07-1.26-4.58 4.9z"/><path fill="#f8f4d5" d="M126.21 24.2c5.58 1.99 8.93 9.69 8.93 13.52l-2.42-2.49c1.71 4.5 1.76 10.6.4 14.09l-1.02-3.14c1.71 3.93 3.27 6.74 3.12 9.74-.26 4.7-1.28 7.89-2.6 9.5l-.92-1.87c-1.87 5.14-4.47 9.22-7.22 10.89l.51-3.39c-2.5 2.79-4.87 4.97-6.68 5.64-3.6 3.1-7.04 6.2-11.02 5.79-4.07-.41-9.35-2.49-10.27-2.9l.15-1.26c-3.55.61-7.82-1.22-9.94-2.62l.92 3.14c-5.04-1.51-8.87-4.2-10.73-7.74l-.77 1.51c-2.46-2.59-3.53-5.49-3.94-9.17l1.56-5.34.92-8.27-1.17-2.59 2.7-8.12c-3 2.69-3.91 5.6-4.48 8.79-1.27-5.99.65-12.14 4.92-17.88-4.88 4.69-6.95 10.22-7.15 16.76l-1.56-1.56c-.26 3.68-.52 7.66-3.12 9.69l-3.45-5.55c-1.17 1.41-2.09 3.8-2.45 6.49-3.15-2.54-4.91-5.88-5.06-10.33l-2.32 2.39c-.92-4.84.35-7.63 5.28-12.08 3.35-3.14 7.37-7.49 8.98-10.44l-1.86-.46c2.6-3.83 6.44-4.89 13.4-4.89l-1.56-1.56c1.47-1.41 3.44-2.08 6-2.18l-2.37-2.39c3.1-2.19 7.12-2.9 13.82-2.29l-1.71-3.49c3.3-.1 6.45 1.46 8.06 3.8 2.22-3.34 6.34-4.9 10.92-4.8l-2.12 2.8c4.42-1.51 9.95-.95 13.1 1.28l-2.7 1.73c2.22.2 3.93.97 5.44 2.04 3.45-.97 6.45.54 9.6 4.73s6.59 6.12 10.09 7.95c4.42 2.29 6.29 6.07 6.7 11.25l-3-3.49c-.77 5.09-1.74 9.98-4.3 12.47-.77-3.59-3.91-8.98-9.55-13.58-2.47-4.19-4.54-8.39-8.06-10.12"/><path fill="#e2d7bd" d="M115.97 28.13c-4.83 0-6.85 6.79-5.03 11.29 1.26 3.34 1.47 5.53-1.93 5.68-2.22.1-3.88-1.88-6.53-1.06-3 .96-5.27 2.68-5.27-1.92 0-3.63-.92-8.86-4.06-10.07-3.25-1.21-7.42.3-10.23 3.59l4.32-.51c-3.1 1.36-5.12 3.39-6.39 5.78 3.2-2.9 7.77-4.06 10.97-2.8 3.84 1.51 4.96 8.78.84 11.88-3.45 1.21-9.65 1.41-11.57 6.06-1.61 4.14-4.07 7.87-2.9 12.71l1.61-3.54c.82 3.68 2.84 6.53 6.24 8.76l-1.42-5.04.51-6.49c2.76.76 5.22 5.46 5.89 8.7l2.65 3.73 8.56 4.84 7.31.41 8.77-4.94 3.39-2.13 1.22-3.05 1.92 1.61c3.1-3.53 7.27-9.53 6-14.27-1.12-4.45-4.81-6.63-8.59-8.14l6.55 1.21c-2.07-3.29-5.02-5.47-10.05-5.68-3.65-.15-3.86-2.62-2.64-5.72 1.56-4.09 4.11-5.91 8.54-5.3-1.76-2.39-4.52-3.7-8.06-4.01l5.33-1.06c-1.81-.82-3.73-.77-5.95-.52"/><path fill="#35001a" d="M118.54 37.81c-3.84 0-4.61 3.24-4.61 4.5 0 2.59 1.12 5.13 4.86 5.13 3.98 0 4.85-2.54 4.85-4.73 0-2.32-1.61-4.9-5.1-4.9M91.21 41.81c-3.84 0-5.3 3.24-5.3 5.07 0 2.13 1.31 4.57 3.18 4.57 1.32 0 5.94-1.62 6.3-3.65.52-2.85-.68-5.99-4.18-5.99"/><path fill="#f8f4d5" d="M92.28 43.94c-1.17 0-1.74.62-1.74 1.38 0 .77.57 1.29 1.33 1.29.87 0 1.44-.62 1.44-1.39 0-.66-.46-1.28-1.03-1.28M118.28 39.93c-.97 0-1.59.72-1.59 1.48 0 .77.62 1.34 1.44 1.34.92 0 1.54-.72 1.54-1.49s-.62-1.33-1.39-1.33"/><path fill="#35001a" d="M107.71 49.63c-3.84 0-5.6 1.16-5.6 3.29 0 2.69 4.02 5.39 6.19 5.39 2.65 0 5.11-3.68 5.11-6.07 0-1.75-2.18-2.61-5.7-2.61"/><path fill="#6d342b" d="M107.91 50.39c-1.86 0-2.68.36-2.68.92 0 .62.92.88 2.58.88 1.92 0 2.84-.36 2.84-.98 0-.56-.97-.82-2.74-.82"/><path stroke="#35001a" stroke-linecap="round" stroke-linejoin="round" stroke-miterlimit="10" stroke-width="2" d="M97.01 60.7c1.47 2.74 4.42 3.15 6.74 3.15 2.36 0 3.48-2.64 5-2.64 1.46 0 2.23 1.62 4 1.62 3.1 0 4.86-1.98 5.63-4.52"/><path fill="#f07861" stroke="#35001a" stroke-linecap="round" stroke-linejoin="round" stroke-miterlimit="10" stroke-width="1.2" d="M102.39 65.11c1.47 2.8 2.74 4.31 5.99 4.31 3.2 0 4.76-3.19 4.76-6.82-1.71 0-3.08-1.62-4.4-1.62-1.46 0-2.63 2.74-4.99 2.74-.52 0-1.03 0-1.36-.1z"/><path fill="#d6c4aa" d="m124.01 88.62 2.17.31c1.02 5.99.92 11.99-1.25 18.24l-3.74-4.75-1.17 7.67.92-7.87c1.87-4.94 1.71-9.13-.31-15.12l.97 2.13z"/><path fill="#f8f4d5" stroke="#35001a" stroke-linecap="round" stroke-linejoin="round" stroke-miterlimit="10" stroke-width="1.2" d="M134.25 89.74c1.71 3.09 4.03 4.2 6.68 3.95-2.22 4.69-4.82 9.09-6.79 10.25l-.62-1.21c-2.36 3.15-5.31 4.87-7.49 5.18l1.02-3.73-4.52 2.9c2.12-6.15 2.48-11.59 1.11-17.94l1.37-.21c2.7-4.94 5.8-9.02 10.07-9.33 2.75-.21 4.02.51 5.04 1.02 1.61.87 3.07 1.28 4.99-.45l2.51 1.88-2.17 5.09-5.28-.61-1.37-1.51c-1.61 1.16-2.48 1.93-4.55 1.06v3.66"/><path fill="#d1633b" stroke="#35001a" stroke-linecap="round" stroke-linejoin="round" stroke-miterlimit="10" stroke-width="1.2" d="M189.91 70.02c-2.12 0-1.76.92-5.01.92-6.2 0-11.79 1.11-15.91 3.91-2.17 1.41-4.19 1-5.75-1.95l-3.15 1.02-2.17 2.79 1.56 5.44 2.8.41c1.47.21 2.73-.41 4.44-1.37 5.59-3.24 11.17-5.17 22.62-5.99 2.46-.15 3.73-1.41 3.73-2.82 0-1.17-1.37-2.36-3.16-2.36"/><path stroke="#35001a" stroke-linecap="round" stroke-linejoin="round" stroke-miterlimit="10" stroke-width="2" d="m156.94 76.91-3.55.31c-3.83 1.11-6.2 3.7-7.47 5.73-1.76 2.9-5.73 3.21-7.49 1.65"/><path fill="#b49b87" stroke="#35001a" stroke-linecap="round" stroke-linejoin="round" stroke-miterlimit="10" stroke-width="1.2" d="M151.91 84.4c1.35 0 2.21-1.01 2.21-2.12s-.86-1.87-1.88-1.87c-1.17 0-1.99.92-1.99 1.98 0 1.07.77 2.01 1.66 2.01"/><path fill="#6d342b" stroke="#35001a" stroke-linecap="round" stroke-linejoin="round" stroke-miterlimit="10" stroke-width="1.2" d="m156.07 87.09-1.97 1.83-1.47 2.24 2.66 4.55c3.4-.82 4.96.69 8.56 6.23 2.85 4.45 8.44 8.79 13.27 11.38 2.46 1.31 4.83-.3 4.83-2.28 0-1.41-1.61-2.43-3.73-3.84-4.83-3.24-10.21-9.08-13.21-14.07l-2.22-4.04z"/><path stroke="#35001a" stroke-linecap="round" stroke-linejoin="round" stroke-miterlimit="10" stroke-width="2" d="M73.98 47.44c.26 5.64-.56 13.4-5.69 17.75M79.8 73.83c4.02 4.09 7.42 4.7 8.79 5.11V76.5c2.65 3.24 7.63 5.12 9.2 5.12l-.21-2.69c3.55 1.36 7 2.82 11.17 2.82 4.42 0 8.02-3.58 9.58-5.09l1.86.82 2.56-2.08"/><path fill="#e2d7bd" d="M118.74 88.92c0 3.19-.92 6.09-2.19 8.48l-.92-3.1c-.92 3.83-3.14 7.32-5.41 9.61l-5.28-6.4.21 1.72-4.43-5.19-.51 1.98c-2.17-1.21-3.14-2.93-3.76-4.91.26 3.93 2.43 6.27 7 9.37"/><path stroke="#35001a" stroke-linecap="round" stroke-linejoin="round" stroke-miterlimit="10" stroke-width="2" d="M118.23 113.09a35 35 0 0 1-5.81 10.53l-.51-2.9c-2.8 4.09-5.85 6.99-7.71 8.35l-.92-16.54c-.67 3.58-.21 11.19.97 21.4.41 3.63 1.78 5.2 3.39 6.41 2.27 1.67 2.58 6.81-.72 8.68-2.41 1.31-8.71 1.36-11.52 0-3.35-1.61-4.21-5.59-6.13-16.83l-1.86-1.16-1.27-7.41-1.61 5.54-1.81-11.35-2.46 1.11-.62-2.9 3.15-10.34c.46 4.14-.56 9.58-1.88 11.92-2.8-2.8-5.26-3.51-9.73-3.92 5.28 1.26 9.55 7.26 9.55 12.85 0 6.4-2.02 9.2-9.59 11.69 4.98-.82 9.25-1.07 11.91.09 3.6 1.51 4.47 5.09 4.16 6.81M53.72 122.39c-1.02 6.64 1 13.34 4.84 16.24"/><path stroke="#35001a" stroke-linecap="round" stroke-linejoin="round" stroke-miterlimit="10" stroke-width="1.2" d="M101.59 145.22v4.09M106.11 144.51l.97 3.73M118.94 139.04l.97 4.45M122.19 139.45l1.27 3.34M78.61 143.08l.82 4.84M83.03 143.08l.82 3.1"/></svg>