<svg xmlns="http://www.w3.org/2000/svg" width="200" height="200" fill="none" viewBox="0 0 200 200"><path fill="#936241" d="M94.17 195c32.54 0 65.71-3.71 65.71-7.93 0-2.88-12.94-5.66-33-6.46l-10.71 1.13-1.23 2.42-5.87 7.35-9.93.3-8.96-8.7-12.01.2-26.35-2.7c-15.3 1.23-25.06 3.86-25.06 6.46 0 3.82 25.33 7.93 67.41 7.93" opacity=".3"/><path fill="#470921" d="M148.09 161.63c4.46-.84 6.85-4.67 5.8-8.31-1.06-3.64-4.27-5.58-7.6-4.54-3.8 1.21-5.5 5.01-4.55 8.33.88 3.15 3.54 5.1 6.35 4.52"/><path fill="#c7eafb" stroke="#470921" stroke-miterlimit="10" stroke-width="1.17" d="M148.3 160.06c3.39-1 4.98-4.19 3.97-7.25s-3.8-4.28-6.36-3.2c-3 1.25-4.2 4.51-3.19 7.26.94 2.69 3.4 3.88 5.58 3.19Z"/><path fill="#fefffe" d="M146.29 153.69c1.32-.43 1.98-1.63 1.57-2.55s-1.45-.96-2.24-.39c-1.11.81-1.28 2.13-.76 2.88.42.6.96.33 1.43.06"/><path fill="#470921" stroke="#470921" stroke-miterlimit="10" stroke-width="1.17" d="M176.97 74.81c4.15-.4 6.16-3.8 5.34-6.98-.82-3.19-3.93-4.44-6.6-3.87-3.4.75-5.02 4.01-4.27 6.83.78 2.87 3.24 4.26 5.53 4.02Z"/><path fill="#c7eafb" stroke="#470921" stroke-miterlimit="10" stroke-width="1.17" d="M176.88 73.63c3.13-.47 4.68-3.32 3.9-5.92s-3.17-3.54-5.26-2.8c-2.74 1.01-3.81 3.8-2.96 6.12.82 2.23 2.76 2.9 4.32 2.6Z"/><path fill="#fefffe" d="M176.34 68.92c1.18-.24 1.94-1.29 1.63-2.14-.31-.86-1.26-.99-2.04-.52-1.12.69-1.46 1.91-1.05 2.59.34.57.95.37 1.46.07"/><path fill="#470921" stroke="#470921" stroke-miterlimit="10" stroke-width="1.17" d="M40.69 42.82c5.12-.07 6.93-4.69 6.32-8.22-.75-4.29-4.62-6.24-8.35-5.56-4.22.78-5.88 5.07-5.03 8.57.88 3.67 3.88 5.28 7.06 5.21Z"/><path fill="#c7eafb" stroke="#470921" stroke-miterlimit="10" stroke-width="1.17" d="M40.83 41.4c3.93-.47 5.8-3.97 4.92-7.22-.88-3.26-3.94-4.73-6.82-4.02-3.6.98-5 4.61-4.08 7.61.92 2.99 3.61 3.94 5.98 3.63Z"/><path fill="#fefffe" d="M38.79 33.81c1.43-.28 2.38-1.53 1.97-2.55s-1.63-1.09-2.64-.41c-1.36.95-1.77 2.48-1.22 3.26.47.65 1.22.21 1.89-.3"/><path fill="#c7eafb" stroke="#470921" stroke-miterlimit="10" stroke-width="1.4" d="M27.67 59.37c2.57 1.02 3.79-.82 3.72-3.29-.07-2.01-2.01-2.96-4.05-2.28-2.26.82-2.73 4.42.33 5.57Z"/><path fill="#c7eafb" d="M55.49 27.83c1.63 1.97 3.67 1.02 4.22-.75.68-2.19-.75-3.82-2.79-3.75-2.57.13-3.18 2.3-2.23 4.2"/><path stroke="#470921" stroke-miterlimit="10" stroke-width="1.4" d="M55.49 27.83c1.63 1.97 3.67 1.02 4.22-.75.68-2.19-.75-3.82-2.79-3.75-2.57.13-3.18 2.3-2.23 4.2"/><path fill="#c7eafb" stroke="#470921" stroke-miterlimit="10" stroke-width="1.4" d="M161.11 148.07c2.57 1.62 4.61-.22 4.95-1.85.47-2.16-1.23-3.66-3.13-3.59-2.88.13-3.96 3.66-1.82 5.44ZM116.07 11.71c1.15-3.9 2.92-5.88 4.89-5.67 2.36.27 3.38 2.9 1.15 4.27-1.84 1.12-3.68 1.32-6.04 2.41-.61.34-.34 0 0-1.01Z"/><path fill="#c7eafb" d="m162.93 17.09.95.54-1.77-1.28z"/><path fill="#fefffe" d="M26.89 57.13c.71.61 1.87.54 2.42-.34.54-.88.14-2.17-.95-2.24-1.3-.07-2.31 1.22-1.47 2.58"/><path fill="#f0e3c9" stroke="#470921" stroke-linecap="round" stroke-linejoin="round" stroke-miterlimit="10" stroke-width="2.33" d="M160.16 108.91c2.11-5.05 9.63-10.92 8.27-20.01-1.02-6.99-7.09-10.95-11.18-8.06-5.39-2.63-9.39 4.02-11.23 8.87-1.29 3.7-6.61 5.74-6.61 5.74l9.6 14.48 7.97 4.09z"/><path fill="#f8f5db" stroke="#470921" stroke-linecap="round" stroke-linejoin="round" stroke-miterlimit="10" stroke-width="2.33" d="M134.76 90.05c10.99 4.98 20.99 18.76 26.79 41.04v2.36c0 .81-5.8.41-7.84 1.22-3.6 1.5-5.37 6.48-11.5 6.89-1.84.13-1.5-8.85-3.2-5.25-1.36 3.19-3.86-.2-3.86-.2-.54 7.13-7.14 16.05-8.23 16.05 3.73 5.62 1.83 13.48-2.2 18.26 6.8 1.7 8.97 6.49 8.02 10.81-1.22 5.62-16.47 4.54-16.94 3.99-.48 3.74-4.04 6.86-13.44 6.86-9.53 0-12.4-6.45-13.21-9.01l-4.79.47c0 3.57-3.33 6.2-11.44 5.69s-19.66-1.98-22.66-4.21c-2.1-1.51-1.83-5.31-1.83-5.31-3.7-2.7-4.28-8.25-4.28-8.25-10.01 5.45-16.07.6-18.74-1.44-.95-.68 1.65-1.56 3.69-2.24-11.19-4.09-11.87-13.55-11.39-15.85.27-1.22 2.44 1.9 3.25 1.63-2.81-9.09 1.98-17.11 4.25-19.15 1.15-1.02 1.22 1.61.95 2.73 4.59-6.39 7.77-8.82 14.3-9.22 2.26-.14 1.45 2.22.16 3.79-7.5 9.22-3.66 20.35 4.11 23.41 1.5-4.29 3.6-7.89 3.6-7.89-1.29 0-1.49-.74-.17-2.52 2.88-3.9 15.7-13.75 21.76-24.68.68-1.29 1.09-2.31 1.09-2.31-3.1-7.69-.88-12.67 2.25-16.27-3.07-2.63-5.07-4.34-7.11-8.99-1.97 4.65-6.51 13.27-18.53 13.88-1.46.07-.85-4.22-2.48-7.24-4.18.81-9.2-7.24-9.68-11.89-.81 1.22-2.44 2.57-3.39-.2-2.74-8.15 4.69-14.67 6.59-16.51-3.53-1.08-5.47-2.64-3.94-3.25 9.02-2.5 14.25-11.19 15-14.15-1.97-.81-3.6-.68-2.61-1.9 5.6-6.75 10.62-5.53 14.78-6.34 1.84-1.71 3.06-4.6 1.23-4.74-2.26-.2-1.99-1.21 0-3.05 4.16-3.84 7.69-4.38 10.19-5.33-2.03-.82-3.18-1.63-1.55-2.89 4.09-2.79 11.09-1.7 14.3-.41 1.9-4.98 5-10.13 10.6-10.54 1.22-.07.41 2.89 0 3.71 3.8-2.23 8.59-3.11 12.32-2.3 1.43.34.48 2.5-.27 3.11 2.74-.27 5.17-.14 7.21.2 4.09-3.29 9.21-4.38 33.3-.47.81-.82 1.63-2.04 1.22-1.02-.68 1.9-.2 4.4.61 5.01 5.66 3.12 7.09 6.99 7.77 9.95.2 1.02-1.63.61-2.04.34 1.7 4.36 4.06 8.19 7.43 10.03.68.34-1.49 3.77-6.14 5.86-4.65 2.1-10.95.81-13.82-.61.81 1.42 1.9 3.33.81 3.53-2.94.54-5.65 0-6.94-.2 2.74 4.29 6.54 8.72 5.73 13.91-.21 1.22-1.29.2-1.7 0 1.02 3.26 1.09 6.86.41 8.69-.48 1.22-1.77-.27-2.45-.88-.55 6.16-3.98 11.67-5.35 13.29"/><path fill="#e6d5b9" d="M131.04 93.48c7.09 8.78 12.27 23.56 12.13 38.97l-3.14-1.15-1.97 3.37-2.5-2.96-.61 5.28-2.88-3.87-2.03-4.06-1.9-8.76-2.5-12.27 3.3-7.72z"/><path fill="#f8f5db" stroke="#470921" stroke-linecap="round" stroke-linejoin="round" stroke-miterlimit="10" stroke-width="1.75" d="M134.76 90.66c9.43 5.12 19.02 15.48 23.67 31.15l-1.22 1.22-5.02-.68-5.53 3.7-2.74 2.17-2.67-.61-2.1-11.01-7.7-20.3z"/><path fill="#b24848" stroke="#470921" stroke-linecap="round" stroke-linejoin="round" stroke-miterlimit="10" stroke-width="1.17" d="M143.92 127.13c3.14-1.08 3.89-3.9 9.25-4.71 3.07-.47 5.67.27 5.67.27l.81 4.03c-2.53-.67-5.74-.4-8.34.62-2.43.95-4.47 3.97-7.6 4.92l-2.46-.2-.14-4.11z"/><path fill="#f0e3c9" d="M118.91 31.06c5.3 0 11.2 4.29 14.14 7.14-2.04.27-5.38-.54-7.98 0 4.22 3.03 8.35 9.48 9.98 14.63-2.17 0-4.34-.61-5.63-.95 1.49 2.37 2.44 3.73 3.66 5.5-5.02-1.71-10.04-12.14-16.87-14.57-1.97-.74-4.07-.74-5.84-.74 2.26-2.16 4.76-3.31 7.43-3.85-4.65-1.11-11.65 1.01-15.02 7.23-.55-2.23.34-5.54 2.8-7.57-4.72.74-6.82 6.9-7.43 11.23-.92-1.7-1.05-4.66-.92-5.82-1.7 1.43-2.31 4.32-2.38 6.82-2.56-2.9-6.72-3.1-10.84-2.7 3.1 1.02 5.91 3.25 6.93 5.35-4.38-2.63-10.68-3.31-15.06 0 2.87-.61 4.3-.2 5.25.55-4.92.54-7.39 2.7-9.42 6.5 2.26-1.53 4.3-1.93 6.33-1.59-3.83 1.97-7.73 4.07-7.73 10.59 0 3.9.81 6.6 0 15.02-2.47-1.7-4.86-9.56-4.66-20.2-1.94 1.53-3.64 4.68-5.4 7.11-1.33-5.92.61-12.81 3.35-15.1-3.76 1.15-5.73 9.11-5.29 15.76.92 0 1.87-.2 2.75-.61.34 7.33 1.16 10.35 1.77 13.24-1.84 9.99-6.66 18.64-14.06 20.34-.75-6.32-5.94-11.64-7.91-15.27-.92 1.71-1.12 4.34-1.12 5.94-3.01-4.43-2.53-12.98 2.19-16.78-3.83.95-6.6 3.8-8 6.3-1.32-7.53 6.28-12.45 11.75-16.67-2.46.82-5.4 1.33-8.07.82 6.6-1.77 12.1-9.3 14.5-13.55 1.63-1.63 4.02-2.44 5.65-2.94-2.46-1.02-4.63-1.15-7.5-1.02 3.2-3.09 6.93-3.79 12.56-3.59 3.43-4.25 6.1-6.95 12.7-7.42-3.4-1.84-6.63-1.97-9.57-1.57 4.15-3.6 11.08-5.37 17.34-3.47-2.26-3.12-5.14-4.51-8.63-4.84 3.49-1.46 8.11-1.46 11.64 1.43.41-3.7 2.67-8.68 6.53-10.72-.81 2.43-1.7 6.13-.81 8.89 3.03-4.72 7.99-7.49 13.42-7.69-1.53 1.53-2.82 2.99-3.3 5 4.59-2.79 10.19-2.79 15.69-1.54 2.33-2.63 5.69-4.47 9.23-4.47-1.15.95-2.71 2.24-3.73 3.4 6.73.34 14.6 1.46 22.9-.87-1.02 1.02-1.91 1.83-2.52 2.88 6.07-1.46 12.33 1.34 14.03 8.3-1.63-.68-3.19-.95-5.13-1.02 2.46 4.65 4.5 9.94 9.32 13.03-4.22 4.92-12.92 4.92-23.4-.87 4.16 1.15 7.49 1.69 11.22.74-6.07-2.49-13.5-8.58-19.1-12.48-3.46-2.58-6.82-3.67-11.74-3.26"/><path stroke="#d8c5aa" stroke-linecap="round" stroke-linejoin="round" stroke-miterlimit="10" stroke-width="1.17" d="M130.43 94.09c4.52 3.7 11.58 13.67 14.11 20.19"/><path fill="#e6d5b9" d="M142.15 34.24c4.16 1.02 5.99 4.99 8.93 5.94-1.32-1.97-2.61-4.76-3.96-6.34M73.53 104.44c0 6.79 3.3 11.18 14.12 20.57-6.13-2.79-16.54-11.2-15.59-17.92z"/><path fill="#e6d5b9" stroke="#470921" stroke-linecap="round" stroke-linejoin="round" stroke-miterlimit="10" stroke-width="2.33" d="M110.07 167.17c7-4.56 15.04-13.21 16.54-16.74 1.32 4.98.64 10.6-3.35 16.47l-1.97 3.32c-2.2.41-4.17.82-5.02 1.84 3.36-.81 13.36 0 14.58 6.86.88 5.22-4.61 5.42-8.14 5.29h-5.73l-1.12-2.1-4.09-4.65-2.46-8.32z"/><path stroke="#a88868" stroke-linecap="round" stroke-linejoin="round" stroke-miterlimit="10" stroke-width="1.17" d="M122.71 176.16c2.56 1.02 3.51 2.62 3.51 5.95"/><path fill="#f8f5db" stroke="#470921" stroke-linecap="round" stroke-linejoin="round" stroke-miterlimit="10" stroke-width="2.33" d="M72.99 118.13c-2.17 5.79-12.24 17.56-20.55 26.18l1.53.47c-7.81 5.86-9.1 16.35-7.27 25.85.75 4.16 3.62 7.41 4.34 7.41l-.41 3.19c0 3.12 3.2 4.68 17.66 6.04l9.02.27c5.02-.48 6.92-2.18 6.92-5.91l4.58-.27-2.6-9.72-1.15-10.51-1.29 1.53c-.55-5.22-.55-10.5 0-14.1-1.53 2.36-2.96 5.89-3.44 8.19-1.32-6.72-4.19-20.72-7.34-38.62"/><path fill="#f8f5db" stroke="#470921" stroke-linecap="round" stroke-linejoin="round" stroke-miterlimit="10" stroke-width="2.33" d="M88.74 150.1c-1.56 0-2.31-.82-2.58-2.79-2.53-12.67-8.43-19.39-11.09-23.58-1.54-2.7-2.86-5.4-2.86-8.32l1.46-5.48 2.17-6.72 3.93 2.7 8.36 2.86 5.9 3.93c9.02 8.12 16.89 22.11 18.11 29.2.41 1.53-5.02 1.66-8.48 1.26-4.22-.4-8.05 6.94-14.92 6.94"/><path fill="#d37833" stroke="#470921" stroke-linecap="round" stroke-linejoin="round" stroke-miterlimit="10" stroke-width="1.17" d="M86.64 141.15c3-1.02 6.19-6 10.84-7.49 3.66-1.17 7.56-.81 10.55 0l1.7 2.5c-3.2-.81-7.49-.88-10.82.68-3.66 1.67-5.99 6.72-11.25 7.94z"/><path fill="#f8f5db" stroke="#470921" stroke-linecap="round" stroke-linejoin="round" stroke-miterlimit="10" stroke-width="2.33" d="M109.05 150.1c-1.12-2.43-1.8-2.43-2.21-.82-1.22 4.98-.27 12.97 2.07 17.96l-1.29.47 2.81 10.23c2.66 1.77 5.03 4 4.62 8.1-.41 3.26-5.73 3.84-8.93 3.84-8.58 0-11.61-2.96-14.04-14.54l-1.97-9.09-1.7 2.7.34-15.94c4.88-.75 8.41-5.2 11.19-7.23 2.23-1.57 7.79-.55 9.99-1.06.82-.27.61-2.7.21-4.67l1.63 1.57c-1.02-7.59-11.09-21.51-18.56-30l3.83-.81-2.46-2.95 11.54.44 1.12-1.63c5.02 1.22 11.08.41 14.02-4.01l3.46-4.98 1.53 1.35 3.43-6.09.95 1.42c-1.46 3.9-5.55 7.76-8.02 10.69-4.65 5.45-9.2 5.86-19.2 4.33l1.63 1.97 14.53 4.36 8.58-9.09c3.66 3.43 7.98 12.52 7.47 26.16l-3.26-3.25c0 5.42-2.33 10.3-5.2 14.49l-.95-3.9c-1.6 7.69-8.1 20.91-17.16 25.53V150.1"/><path fill="#f0e3c9" d="M116.21 143.09c.47 3.26-.61 6.12-3.18 8.16-1.9-1.22-2.38-4.22-1.9-5.85 1.15 1.02 2.1 1.7 2.1 1.7z"/><path stroke="#470921" stroke-linecap="round" stroke-linejoin="round" stroke-miterlimit="10" stroke-width="1.17" d="M103.66 183.26c1.96 1.97 2.37 3.87 1.96 6.24M72.72 185.83c-.81-2.5-.41-3.79.41-4.67 1.9 1.22 2.78 2.65 2.31 5.9"/><path fill="#e6d5b9" d="M74.76 173.7c3.1-3.26 4.66-9.98 2.2-16.07-2.2-5.62-5.53-7.32-8.89-8.07 5.9 0 11.02 4.55 11.77 12.48.41 4.49-2.12 10.35-4.22 12.32z"/><path stroke="#470921" stroke-linecap="round" stroke-linejoin="round" stroke-miterlimit="10" stroke-width="2.33" d="M64.71 177.6c3.2-2.43 6.33-2.43 9.37-2.43 6.53 0 10.23 2.86 10.23 8.24 0 2.7-1.97 3.72-4.5 4.19"/><path fill="#e6d5b9" d="M49.92 161.13c-1.29 5.79.75 12.51 7.01 14.04-1.46 2.43-1.8 4.66.53 6.12 1.97 1.16 9.71 2.93 14.33 4.01-7.57 0-17.85-1.49-20.17-3.66-1.77-1.67-.92-4.73 0-6.47-3.33-.68-3.94-7.77-1.7-14.04M22.91 155.41c1.97 2.43 4.33 3.31 8.95 3.31-1.7.95-3.02 1.09-3.94.95 2.74 2.6 5.2 3.51 9.82 2.6l-2.46 2.43c2.46.51 5.49 0 7.46-.95l1.22 6c-5.02 2.43-10.51 1.41-13.74-.43 1.53-.67 2.55-1.69 2.89-2.5-6.53-1.7-11.08-7.09-12-11.77.92.85 2.35 1.26 3.64 1.26zM24.95 139.16c-.92 4.75.4 7.87 2.86 7.06l-.27-5.12 1.7-2.5-2.94-2.43z"/><path fill="#f0e3c9" d="M110.62 104.85c-7.5 0-16.59-4.07-16.59-13.57-1.97 3.73-1.56 6.16-1.56 6.16-4.62 0-6.25-1.97-6.52-6.16-1.53 1.25-2.21 2.81-2.72 4.17-3.1-1.97-3.1-8.72-.5-13.41-2.26 1.02-3.51 2.41-4.46 3.67.48-7.73 8.98-14.89 15.04-15.7-2.1-1.26-3.63-1.26-4.58-1.26 3.43-2.5 8.12-3.59 10.99-3.04-1.46-1.47-3.4-1.74-4.45-1.74 2.88-.81 6.54-1.22 9-.81-.81-1.15-1.63-2.03-2.1-2.64 2.26.14 5.04 1.09 6.94 2.65 3.5-2.44 10-3.93 15.6-2.51 3.43.88 8.58 4.31 10.55 7.5-1.97-1.02-4.33-1.97-6.3-1.97 4.26 2.43 7.1 5.92 7.58 10.91.41 4.42-4.41 11.66-10.91 18.05l.41-4.49c-3.43 4.65-5.4 14.19-15.42 14.19"/><path fill="#d8c5aa" d="M120.08 72.92c3.1 0 5.14 2.43 6.67 4.72-2.04-1.49-4.57-2.17-7.57-2.23-.95 0-1.9-2.49.9-2.49"/><path fill="#470921" d="M120.76 73.93c-.95 4.99-4.61 6.83-8.04 6.83-4.99 0-7.76-3.39-9.29-6.83h3.43l1.56-4.78 2.84.48c.95 2.43 3.41 4.3 9.5 4.3"/><path fill="#470921" d="M104.91 67.06c5.5-.88 6.55 2.02 6.28 3.86-.81 5.22-4.48 7.19-6.28 6.72-3.66-1.02-7.39-1.97-7.39-5.4 0-2.5 2.84-4.47 7.39-5.18"/><path fill="#f8f5db" d="M102.24 70.21c1.6-.99 3.79-1.26 4.87-.99-.95-1.02-4.05-.47-5.58.51-1.39.88-1.39 1.67-1.39 1.67s.75-.41 2.1-1.19"/><path fill="#ea6852" stroke="#470921" stroke-linecap="round" stroke-linejoin="round" stroke-miterlimit="10" stroke-width="2.33" d="M102.24 87.92c2.53-1.29 3.28-2.82 6.47-3.23 2.53-.34 5.56-.41 7.53.41 1.22 3.73.4 8.38-4.55 9.33-4.16.81-6.92-3.77-9.45-6.51"/><path fill="#470921" d="M104.91 87.72c1.32-1.43 3.42-2.31 5.16-1.91-1.63-1.53-4.4-.4-5.86 1.23z"/><path stroke="#470921" stroke-linecap="round" stroke-linejoin="round" stroke-miterlimit="10" stroke-width="2.33" d="M94.91 83.94c.82 1.94 3.28 1.87 5.25 1.13 4.55-1.84 6.65-6.27 7.06-8.65"/><path stroke="#470921" stroke-linecap="round" stroke-linejoin="round" stroke-miterlimit="10" stroke-width="1.17" d="M92.74 92.06c0-4.1 1.7-8.36 3.33-8.76M129.91 121.61c-.82-2.43-2.14-3.89-3.16-3.89.41 4.98-1.12 11.47-3.99 14.39.41-2.85 0-5.08-1.22-6.06"/><path stroke="#e6d5b9" stroke-linecap="round" stroke-linejoin="round" stroke-miterlimit="10" stroke-width="1.17" d="m114.31 126.05 1.97 3.48M101.92 117.11l8.59 4.7"/><path fill="#470921" d="M118.89 59.07c4.16-2.99 1.19-10.78-3.43-10.44-6.41 0-6.99 6.36-4.53 9.58.88 1.23-.82 2.38-1.77 3.13 3.2-1.22 6.7-2.27 9.73-2.27"/><path fill="#fefffe" d="M115.19 54.55c1.14-.34 1.56-1.49.95-2.33-.68-1.02-2.31-.61-2.65.41-.47 1.28.48 2.3 1.7 1.92"/><path fill="#470921" d="M83.81 75.14c4.72-.54 5.94-5.92 4.25-9.01-1.9-3.57-7.33-3.57-9.3 0-2.39 4.49-.49 9.54 5.05 9.01"/><path fill="#fefffe" d="M84.76 68.61c1.02-.34 1.36-1.36.75-2.28-.68-1.02-2.04-.54-2.38.2-.61 1.33.41 2.49 1.63 2.08"/><path stroke="#fefffe" stroke-linecap="round" stroke-linejoin="round" stroke-miterlimit="10" stroke-width="1.17" d="m82.23 71.13.48.68"/><path fill="#c7eafb" stroke="#470921" stroke-miterlimit="10" stroke-width="1.4" d="M153.37 67.19c2.67-4.22 4.74-7.14 8.9-7.07 3.76.07 4.37 3.64 2.34 5.41-2.46 2.23-5.99 1.08-8.45 1.28zM170.96 51.85c2.16-4.1 3.59-6.46 6.59-6.53 2.94-.06 3.69 2.77 2.16 4.4-1.77 2.04-4.3 1.22-6.27 1.49zM38.32 112.43c-3.66-1.7-7.19-2.51-9.55-1.49s-2.43 5.15.67 5.83c3.2.75 5.63-2.01 7.73-3.57zM56.92 113.17c-4.16 2.16-6.76 4.49-7.81 6.99-1.02 2.79 1.51 5.36 4.04 4.14 3.04-1.42 2.97-6.92 3.52-9.08l.47-2.46z"/><path fill="#470921" d="M174.71 106.92c3.33-4.79 4.45-8.87 3.91-9.88 1.02 4.82-1.95 11.05-4.48 12.61zM169.45 108.83c4.49-5.15 6.12-15.08 5.3-18.57 1.46 4.43.21 12.95-5.82 19.4z"/><path fill="#e6845b" d="M153.17 87.79c1.02-2.73 2.24-4.16 3.64-3.55 1.46.68 1.12 2.77-.24 4.38-1.46 1.7-4.56 2.04-3.4-.83M158.43 85.95c.41-1.29 1.29-2.24 2.11-1.77 1.12.68.71 2.65-.21 3.87-1.02 1.26-2.92.01-1.9-2.1M163.05 88.62c.82-.47 2.04 0 2.04 1.16 0 1.29-.88 2.75-2.04 2.35-1.32-.48-1.32-2.62 0-3.51M153.85 92.39c1.39-2 4.36-2.47 5.51-.74 1.36 2.17 1.36 5.39-1.1 6.4-1.9.78-2.85-1.89-4.21-2.09-1.77-.34-1.77-2.14-.2-3.57"/><path fill="#470921" d="M22.23 93.01c1.7 4.03 3.26 6.22 5.29 7.65 1.12.75-1.48.82-3.45-1.61-2.46-2.89-3.51-5.3-3.65-6.99-.27-2.16 1.05-1.45 1.81.95M23.32 85.61c-.27 2.96 1.29 8.61 4.62 11.63 1.46 1.39 2.82 1.79 2.82 1.79-4.62-1.97-8.05-8.16-8.25-12.67-.07-2.33 1.05-3.14.81-.75"/><path fill="#f0e3c9" d="M47.04 72.92c.68-2.43 4.14-4.76 5.91-8.49l1.56-1.6-3 10.83-2.46 1.49c-1.94 0-2.42-.75-2.01-2.23M47.04 84.35c1.05-1.53 3.12-2.75 4.58-4.72 1.02 1.97 1.5 6.19 2.52 8.62 1.46-1.52 2.41-5.42 2.41-8.91 1.05 1.97 1.05 6.4-.41 10.79"/></svg>