<svg xmlns="http://www.w3.org/2000/svg" width="200" height="200" fill="none" viewBox="0 0 200 200"><path fill="#fefffe" d="M0 0h200v200H0z"/><path fill="#d6c9bd" d="M100.91 183.42c-27.29-1.23-53.86-3.33-68.04-.54-9.63 2-13.76 3.23-12.76 5.09 2.26 4.25 26.6 6.84 57.01 7.56 10.29.28 11.85.56 17.6 0 9.42-.94 15.49-1.31 26.06-1.81 15.03-.75 29.44-3.81 30.31-6 1.07-2.6-14.43-2.75-50.18-4.3"/><path fill="#fcfbe5" stroke="#380a23" stroke-linecap="round" stroke-linejoin="round" stroke-miterlimit="10" stroke-width="3" d="m126.81 180.41-4.06-2.35 5.37-4.78 3.6-7.03-.06-6.13-3-8.06-6.41-7.15 3.72-11.6 5.69-1.28 4.96-.44 5.44-2.65 8.85-8 11.9-11.72 7.94-8.78-.06-5.63-.38-6-4.37-5.37-6.85.18-5.68.82-5.5 3.47-6.6 9.03-8.19 5.31-6.18.69-2.28-7.22-2.1-3.6 5.88-3 4.5-8.87v-5.09l2.59-.82-.72-11.65 8-3.25 3.41-4.13-.19-1.69 4.72-5.31-.56-3 2.34-5.69 1.22-11.5-1.09-11.78-1.57-8.53-4.97-2.15-8.06 1.5-13.4 8.65-1.85-2.34-6.06 5.25-.81-.06-6.91-2.85-10.12-1-1-2.4-6.29.43-6.46 4-1.75 2.07-8-2.57-7.53 1.16-.32 1.22 3.13 2.5-3.94.72-10.06 4-6.28 5.5v1.5l-6.29 2.56-4.5 5.25-4.71 8.81-8.53 9.69-2.72 6.78 1.22 7.59 2.43 3.6 2-.5 3 5.19 6.81 6.12 2.44 5.31 3.78-.12 5.28-3.88 1.44-2.22 2.28 7 4.07 4.72-.88 2.91-6.12 8.69 3.53 1.37-6.35 11 3.03 2.07-4 7.43-4.37 14.1-5.5 7.65-4.66 1.56-3.25-6.78 1.1-8.53 6.22-6.78-1.91-1.5-7.44 1.5-7.5 6.41-4.25 2.5-3.31 6.4.19 9.1 1.68 7.44-2 .18 4.5 6.6 9.5 4.65 9.63.44 3.56-.44 3.72 4.97-.37 3.88 3.87 2.4h11.13l7.96-.94 3.82-.81 3.5 5.03 8.37.72 9.38-2.15 2.69-6.79 6.46 2.54 13.78 2.68 12.13-.72 5.87-2.9.07-3.81z"/><path fill="#fcfbe5" stroke="#380a23" stroke-linecap="round" stroke-linejoin="round" stroke-miterlimit="10" stroke-width="3" d="M14.81 143.06c3.13-6.4 9.94-11.25 16.63-10.75 3.12 0 6.18-.65 6.37.81.25 2.13-5.75 3.63-7.31 10.72-1.25 5.91 2.75 11.28 5.03 12.28l-.56 4.19-1.22 14.63-8.94-.72-10.75-6.13-1.56-3.06 3.25.13s-4.72-8.78-3.44-15.47c.81-4.38 3-8.13 3.44-8.13 1.31 0-.94 1.5-.94 1.5"/><path fill="#e8ddc7" d="m16.56 148.09 2.5 6.6s-.44-11.63 6.75-17.94c3.13-2.84 7.63-3.31 7.63-3.31s-8.32 5.81-4.75 17c2.34 7.44 7.25 7.25 7.25 7.25l-1.1 11.43 3.13 6.69s-5.53 1.91-14.06-1.15c-6.72-2.5-10.6-9.35-10.6-9.35l3.31.63s-4.71-7.44-2.37-16.44c1-3.94 1.87-6.38 1.87-6.38zM124.28 147.19c-3.25-3.25-3.5-2.28-3.5-2.28s-6.53 12.65-5.03 20.71c1.06 5.82 6.87 5.32 6.87 5.32l4.91 2.78 3.81-7.66c1.5-6.9-2.62-14.56-7.06-18.87"/><path fill="#fcfbe5" stroke="#380a23" stroke-linecap="round" stroke-linejoin="round" stroke-miterlimit="10" stroke-width="3" d="m126.62 102.81 1.63-.25c6.41-1 11.06-4.94 15.97-12.22 4.5-6.59 8.37-6.22 10-5.4 3-1.78 6.94-2.69 11.06-.56 4.56 2.34 5.53 7.74 4.78 10.03 1.69 2.65 1.32 7.4-6.03 14.53-5.87 5.68-7.31 8.68-15.91 13.12l2.29.25c-5.75 6.41-12.79 10.41-13.5 9.13-.38-.69.34-2.03.34-2.03-4.66 2.5-9.91 3.21-9.91 3.21z"/><path fill="#e8ddc7" d="M139.91 120.12c7.71.19 14.9-6.06 18.21-9.5-4 2.69-7.56 4.19-10.81 4l1.91-1.5c-3.66 2-14.06 8.19-17.13 3.94-2.75-3.81-6.15-7.87-7.06-8.56 2.06 5.12 2.63 8.56 2.13 14.56l-.91 6.6 4.06-1.75c4.13-.66 9.22-2.85 11.72-4.75-1.28.28-2.12-3.04-2.12-3.04"/><path fill="#380a23" d="m124.09 96.12 4.16 9.69-1.37.63-3.57-8.32z"/><path fill="#fcfbe5" stroke="#380a23" stroke-linecap="round" stroke-linejoin="round" stroke-miterlimit="10" stroke-width="3" d="M152.81 15.28c-.19-6.25-3-9.66-7.72-9.22-7.43-.62-15.03 6.16-20.97 11.28l-.37-3.18c-3.06-.63-8.63 6.68-8.63 8.43-6.06-4.65-11.81-6.15-16.78-5.65l.5-3.72c-6.78-1.5-13.09 1.62-15.43 7.12-4.97-4-9.72-4.62-15.53-2.93-2.57 1.31-1.57 2.12 1.06 2.12l2.62 1.31c-7.72-.65-16.5 4.07-21.15 9.57l.43 2c-5.75 1-9.59 3.65-11.5 8.31-2.5 6.12-5.28 9.69-10.78 15.31-6.62 7.25-6.12 13.78-2.62 20.03 1.31 1.91 1.87 1.1 2.62-2.9.75 4.96 4.5 9.46 8.5 12.9 2.75 2.28 2.47 5.66 4.85 6.97 4.25 1.63 8.25-2.94 9.81-8.37.9 5.25 2.12 10.25 7.37 14.18l1.63.63 1.22-3.06c3.25 5.62 8.22 9.5 14.9 10.62l-.12-2c4.81 2.25 9.31 3.13 13.19 2.31 3.84 1.28 8.15.57 10.65-1.43 5.1-.66 10.6-4.79 13.5-7.38l.75 1.63c3.72-1 8.1-7.13 10.31-10.91l2.97 1.28c4.5-4.5 5.66-10 4.85-15.5l1.9 1c2.07-2.84.32-9.47-1.43-13.53 5.25-.56 10.68-3.41 12.53-6.84l-1.28-.91c3.5-2 6.4-6.31 5.96-8.31l-2.28-.28c3.72-4.66 6.72-16.1 5.41-23.94-.5-3-.69-4.56-.94-6.94"/><path fill="#f3b0a0" stroke="#d67d61" stroke-linecap="round" stroke-linejoin="round" stroke-miterlimit="10" stroke-width="1.5" d="M123.25 22.22c3.19-4.31 12.5-13.56 20.94-12 4.56.81 6.4 5.62 6.4 12l-.25 2.75-.62-2.35c0 2.63-.81 7.6-2.56 11.54l1.75-.44c-2 6.69-9.03 15-13.85 13.94-2.84-.66-4.4-3.6-4.4-6.35l-3 5.13-.63-3.38 1.91-5.81-5.82 2.69c-1.74-3.78-3.06-8.82.13-17.72"/><path fill="#d98978" d="M125.06 26.66c4-6.5 11.78-14.44 18.56-14.94 4.57-.38 5.19 8.44 4.19 18.12l-1.37 5.38-1.28.9-3 3.07-4.97 4.43-3.94-1.5 2.69-10.28-5.88 1.78 2.6-4.53-4.5 1.75z"/><path fill="#f9f4d9" d="M52.56 43.06c-4.72 4.66-6.62 11.25-6.25 16.22l1.63-1.62 3.37-4.5c-2.75 6.59-3.25 13.12.25 21.18l1.06.5c.5 2.38-1.78 11.32.91 14.32l3.59 4.65 3.6 4 1.5-4.5c3 5.31 6.44 9.97 14.62 12.03l-.72-2.28c4 2.16 9.69 3.78 12.54 3.35l-1.63-2.16c5.81 1.69 10.06 2.41 15.56-2.84l-.25 1.62c4.72-1.5 10.78-6 12.28-7.5l1 2.69c4.72-3 8.6-8.88 10.44-14.06l2.75 2.75c2.25-3.5 2.25-10.1 1.25-13.82l4 1.5c.38-3.43-1.81-9.56-3.56-13.56 5.81 1.13 11.56-3.12 13.06-4.97l-4.5.88c4.82-2.28 9.25-6.78 10.16-9.78l-3.13.56c3.5-4 6.25-11.5 6.25-14.25l-7.5 3.56 1.22-1.62-.9-.57 5.59-3.43c1.22-3.5 2.06-10.57.31-16.44l-.72 5.75c-.28-7.81-1.78-12.81-7.4-11.56-6.78 1.5-15.5 11.25-18.75 14.96-3 3.5-3.13 11.79-1.57 15.1l4.72-3-.81 2.84.13 4.66.43 3.25 1.16 2.15.91 4.82c3.43.81 9.18-1.69 11.09-3.53-2.75 3.5-7.19 4.75-11.13 3.93l-2.28-5.87-1.28.44 1.5-6.79-4-2.5c-2.75-2.68-2.25-9.78.5-15.03l-1.75 1.22c-1.5 1.5-4.25 4.66-6.09 7.85-.56-3 .44-7.97 1.19-9.88-4.97-3.72-13.85-7.66-24.35-4.22l2.06-5.62c-4.96.37-9.46 5.09-10.96 9.59-3.5-4-8.41-6.12-12.35-5.31l5.25 5.62c-6.68-1.5-15.81 0-22.81 5.63l4.81 2c-6.68.65-13.47 2.41-16.22 6.75-2.28 3.84-4.18 9.09-10.96 16.19-4 3.84-5.26 8.65-5.07 14.15l1.5-4c-.75 3.5.75 9.19 2.25 11.1l1.5 1.5c-.75-3 1.75-7 3.25-10 .25 5.68 3 9.4 7.72 12.65 1.75-1.5 3.25-6.5 3.25-11.75.25-5.25 2.06-13.03 6.78-25"/><path fill="#e8ddc7" d="M119.06 144.91c1.56-4.72 3.06-8.85 3.06-8.85l2.29 3.78c2.43-2 2.78-10.78 2.78-10.78l-2.07-2 1.13 2.19-1.22-11.78-.91-1.91-1.06 3.25-3-7.56c0 4.97-1.22 8.91-3.22 10.81l-1.5-5c-1 6.69-3.5 12.19-6.93 16.19l.25-6.59-4.5 8.4-5.44 5.25-8.94-11.56-.56 5.44c-4.31-2.75-7.06-6.53-9.19-12.66l-2 6.5c-4-2.28-5.69-6-6.5-10.97 1.75 4.5 5.53 7.75 8.53 9.75l-.72 1.5c3.72 4.97 8.38 9.1 11.72 9.81l-.5-3.43c2.5 1.28 5 4.28 7 6.97 5.19-2.5 9.5-9.54 11.25-17.85l1.63 5.03c2.75-2.75 4.65-8.18 5.4-13.68l1.91 2.9c1.5-1.5 2.37-5.5 2.37-8.75 1.5 2.75 6.69 9.44 7.07 19.75l-1.5 2-.44 4.97-2.19-.97-2 9z"/><path fill="#e8ddc7" d="m61.25 100.06 2.19.38 5.18 6.68 10.13 6.79-3.19-.25c6.78 2.5 15.97 5 21.53 3 5.25-1.91 14.1-9.91 16.6-12.91l-.75 3.72c3.5-1.75 7.22-6.85 8.72-9.85l-3.5 1.07-4.5 2-1.22-3.07-6.19 4.13-2-1.69-1.69 2.19-5.5 2.84-9.62-2 .72-1.75c-3.72-.72-7.44-4.15-7.44-11.18l-4.66 1.5-3 7.09-1.75-1.13-4.25-1.5-3.94.82zM59.5 54.16c4.25-5.5 8.09-6 11.81-5-1.5-2-2.25-2.5-2.25-2.5 7.5.5 9.88 6.5 9.5 11.87-.44 5.38-2.5 9.09-7 10.59-7.5 2.63-11.44 8.13-12.06 18.63-2.28-4.66-3.78-13.66-2.78-17.59 1-4 .34-11.5 6.53-16z"/><path fill="#e8ddc7" d="M110.81 82.06c3 1.5 6 4.5 7 6 1.25-3.25-.25-9.84-4.5-13.84 3.5 1 6.94 3.5 8.85 6 .5 3.72-1.35 9.84-4.85 13.84l-2.75 2.25-2.25-1.25-3.5 3c4-5 3.25-11.5 2-16M101.56 62.69c4.5-1 15.5 1.25 21 7.25 3 3.25 5.5 7.75 5.75 11l-1.75-5.69-4.5-1.5c-4.5-6.59-11.75-9.06-20.5-11.06"/><path fill="#e8ddc7" d="M102.06 39.62c-4.5 1.5-6.25 7.32-5.25 12.57 1.25 5.87 5.75 9.37 8.5 10.37l8.94-1-1-4.5c4.5 1 10 2.5 13 3.5-1-7.5-7.5-13-16-14.5l3.5-4c-4-2.5-8.5-1.5-12.69 2z"/><path fill="#fefffe" d="M78.06 63.56c2.5-1 5-1.5 7.28-.5l8.54-3.5-1.82 4 10-1c-4 2.5-11.25 4.5-15.5 4.5-3.25 0-7 0-9.5 1.5z"/><path fill="#e8ddc7" d="M70.75 183.06c0 4 3.19 6.85 8.16 6.85h4.43c6.07 0 10.47-1.75 10.47-7.19l-.56-3.66-.72-6.65c6.22-2.85 15.35-9.69 19.35-15.38l-1.07 4.5c5-4.97 9.25-13.78 9.75-16.28-2-2-2.28-1.5-2.28-1.5-3.25 5.31-8.06 11.56-13.03 17l-.5-10-6.69 4.97c-3.25-1-6.97-6.5-9.25-9.94-.75 4 .94 9.25 3.44 13.97l-5.5-5.03c4 4.72 4.28 16.34 4.53 22.34l1.28 6.13c-.5 4-3.5 6.15-5.34 6.15l-1.16-5.68c-.28 3.25-.34 5.5-5.84 5.5-1.75 0-2.19-2-2.19-6l-1.75 4.96c-2.75-.5-5.03-2-5.53-5.06M60.12 135.72c-2.74 4-4.06 10.53-3.56 17.03l3.25-2.5-1.15 10.28 2.28 4c1.25 2.5 3.75 6.5 4.75 11l1.15 4 .5 6.53c2.25 1.75 3.25 1.85 3.25 1.85l-.56-9.38-3-12.47-2 1-.5-10 1.5-2-3.5 3-.19-12.81-4.5 6.5c-.72-4.5.28-11.56 2.28-16.03"/><path fill="#fcfbe5" stroke="#380a23" stroke-linecap="round" stroke-linejoin="round" stroke-miterlimit="10" stroke-width="3" d="M43.91 178.91c-6.79-3.25-7.5-12.25-5.1-15.25-1.5 4.5-.25 10.5 5.94 13.75 2.5-1.25 4.19-2.38 9.44-2.38 3.5 0 5-3.5 4.25-7.44l-4-13.28-3.25-5.25 3 1.5 2.25-4-.25 9.5 1.75.5 2.25 8.47 6.59 12.13v7.96c-2 2.5-6.5 3-14.53 3-6.78 0-9.03-2.06-9.03-4.56-.03-2.22.69-4.65.69-4.65"/><path stroke="#d6c9bd" stroke-linecap="round" stroke-linejoin="round" stroke-miterlimit="10" stroke-width="2" d="M50.16 180.06c-.5 2.25-.5 4 0 6M56.16 178.56c.5 1.75.5 4.25 0 6.5M61.66 179.56c1 1 1.5 2.75 1 4.5"/><path fill="#e8ddc7" stroke="#380a23" stroke-linecap="round" stroke-linejoin="round" stroke-miterlimit="10" stroke-width="3" d="M126.25 175.34c4 1 6.5 3.25 6.5 7.5 0 4.5-4 5.32-14.5 5.32-8.53 0-19.94-3.5-24.91-5.5l-1-6.54c6-2.5 15.13-9.53 18.88-16.03l-.75 4c4.5-4 9.22-13 9.97-18 6.75 3.72 12.75 12 12.25 20-.25 3.25-1.25 3-2.5 2.25 0 3-1.5 5.5-3.94 7"/><path fill="#fcfbe5" d="M110.22 178.34c3.25-2 10.03-2.25 12.03-.75 3.5 1 6 2.5 6 6.5l-1.22 2-2.75.5-2-5.5-2-1c.5 2 .75 3.75 0 5.5-3.72-.75-9.22-4.5-10.06-7.25"/><path fill="#380a23" d="M129.25 161.09c-1-1-2-2-3-2.5 1 3.5 1.5 10.5-4 12 4-.5 6.5-2.5 7-9.5"/><path fill="#f3f6f9" stroke="#290a23" stroke-linecap="round" stroke-linejoin="round" stroke-miterlimit="10" stroke-width="2.5" d="m157.56 156.06.16 28.06c-.06 4.13 2.09 5.63 7.53 5.63h11.84c5.75 0 7.94-2.25 7.94-6.03v-28.1c0-5.12-2.12-7.68-6.37-9.43l-.35-1.28h-13.65l-.25 2c-4.5 1.75-6.85 4.25-6.85 9.15"/><path fill="#62a8ba" stroke="#290a23" stroke-linecap="round" stroke-linejoin="round" stroke-miterlimit="10" stroke-width="2" d="M158.06 157.06c7.5 1.5 18 1.75 26.5-.5v22c-6.75 2.5-17.5 2.25-26.5 0z"/><path fill="#62a8ba" stroke="#290a23" stroke-linecap="round" stroke-linejoin="round" stroke-miterlimit="10" stroke-width="2.5" d="M178.53 135.81h-13.78c-1 0-1.5.72-1.5 1.6v6.9c0 .75.5 1.31 1.63 1.5 4.18.81 8.84.75 13.5-.06.87-.19 1.43-.69 1.43-1.63v-6.78c.07-.93-.5-1.53-1.28-1.53M174.66 123.41c-.28-1.57-1.28-1.69-2.72-1.69-1.69 0-2.32.5-2.56 1.94l-2.44 12.06h9.62z"/><path stroke="#37859a" stroke-linecap="round" stroke-linejoin="round" stroke-miterlimit="10" stroke-width="2" d="M166.06 137.66v7M168.81 137.66v7M171.56 137.66v7M174.31 137.66v7M177.06 137.66v7"/><path fill="#b9c9d3" d="M178.16 148.06c3.25 1.5 5.15 4 5.15 8l-5.5.75c1.25-2.75.25-6-3-8.75z"/><path fill="#e8edf1" d="M183.06 180.06v4c0 3-2.5 4.25-5.75 4.25h-11.25c-4 0-6.75-1.25-6.75-4.75v-3.25c4.25 1.75 17 2.25 23.75-.25"/><path fill="#e8f6fd" stroke="#62a8ba" stroke-linecap="round" stroke-linejoin="round" stroke-miterlimit="10" stroke-width="1.5" d="m170.75 163.91.66-1.16.84-1.69.87 2 2.69 5.25c1 2 .75 4.75-1.5 7-1.75 1.5-5 1.25-6.5-1-1.75-2.5-.75-5.25 0-6.5z"/><path stroke="#62a8ba" stroke-linecap="round" stroke-linejoin="round" stroke-miterlimit="10" stroke-width="1.5" d="M173.25 173.56c-1.5.75-3.19-.25-3.47-2"/><path fill="#d67d61" stroke="#380a23" stroke-linecap="round" stroke-linejoin="round" stroke-miterlimit="10" stroke-width="1.5" d="m175.06 18.75-.25-1.5-30.06 18.5 1 2 30.5-17.5z"/><path fill="#f3f6f9" stroke="#380a23" stroke-linecap="round" stroke-linejoin="round" stroke-miterlimit="10" stroke-width="2" d="M175.91 16.34c2-3.25 6.25-6 9.25-5.5s3.5 3.5 2.5 5.5c-1.5 3-7 4.5-10 4-2-.5-2.75-2-1.75-4M133.25 38.72c2-2.5 7.19-3.5 9.94-3 2.5.5 3.25 2.5 2 4.25-2.25 3.25-5.5 5.75-9 5.25-4-.75-4.94-3.75-2.94-6.5"/><path fill="#380a23" d="M70.72 57.72c-4.13.62-5.97 4-5.78 6.75.28 4 3.03 5.75 5.78 5.75 4 0 6-3 6-6.25s-2.25-6.75-6-6.25"/><path fill="#f3f6f9" d="M72.31 63.69c1.17 0 1.85-.75 1.85-1.75s-1-1.75-1.91-1.75c-1.09 0-1.81.75-1.81 1.59-.03 1.03.78 1.91 1.87 1.91"/><path fill="#380a23" d="M108.81 51.72c-4.12-.5-6.87 3-6.87 5.5-.25 4 2.25 6.25 5.75 6.25 4.5 0 6.5-2.25 6.5-5.5-.03-2.75-2.31-5.75-5.38-6.25"/><path fill="#f3f6f9" d="M109.81 57.31c1.17 0 1.85-.75 1.85-1.59 0-1-1-1.75-1.91-1.75-1.09 0-1.81.75-1.81 1.59-.03 1 .78 1.75 1.87 1.75"/><path stroke="#380a23" stroke-linecap="round" stroke-linejoin="round" stroke-miterlimit="10" stroke-width="3" d="M82.16 87.06c4 2 10-.5 10.75-5.5 3.25 4 10.25 4.5 12.75 1"/><path fill="#380a23" d="M91.91 69.06c-5.25 0-8 2.25-8 4.75 0 3.25 3.71 6.75 6.97 6.75 3.5 0 7.74-5.25 7.74-8.25 0-2.5-2.24-3.25-6.71-3.25"/><path fill="#9b6464" d="M91.16 72.56c3.15-.5 4-1.75 4-1.75-1-.75-7-.75-8.25.25-.25.25 1 2 4.25 1.5"/><path fill="#d98958" d="M152.06 90.81c.75-2.15 2-2.75 3.5-2.5 1.75.35 2 1.85 1 4-1 2.35-2.5 2.85-3.75 2.35-1.5-.5-1.75-2-.75-3.85M158.31 90.06c1-2.25 2-2.5 3.25-2.25 1.75.5 2 1.75 1 3.75-1 2.25-2.5 2.75-3.75 2.25s-1.5-1.75-.5-3.75M162.81 93.81c1-1.75 2.25-2.25 3.5-1.75 1.5.75 1.5 2.25.25 4s-2.75 2-4 1.25c-1-.75-1-1.75.25-3.5M151.06 96.66c2-1.25 5-1.5 7-.75s2.75 3 2 5.75c-1.25 4-3.75 4-6 1.25-2-2.75-5.5-3.5-3-6.25"/></svg>