<svg xmlns="http://www.w3.org/2000/svg" width="200" height="200" fill="none" viewBox="0 0 200 200"><path fill="#fefffe" d="M0 0h200v200H0z"/><path fill="#d6c5be" d="M100.34 195.31c28.43 0 60.58-4.66 60.58-9.23 0-3.67-18.83-7.27-51.89-7.27l-18.14-.29c-28.43 0-53.13 4.21-53.13 7.45 0 4.57 19.67 8.79 48.41 9.13z"/><path fill="#f9f2d2" stroke="#35011b" stroke-miterlimit="10" stroke-width="2.3" d="M145.38 130.02c-.66-.36-.46.76-.46.76-1.31 9.01-5.64 15.55-11.85 17.54l-2.06-.54-.62 2.26 8.5 11.52c8.33-.91 12.4-8.08 13.9-12.64.37-1.19-.8-.13-1.5.19 3.47-8.46-1.5-16.62-5.91-19.09Z"/><path fill="#e0ccae" d="M146.89 146.81c1.2-1.02 1.97-2.47 1.97-2.47-.49 3.63-2.77 7.95-5.52 8.58l2.77.21c-1.62 1.99-3.62 3.29-6.22 3.66l-4.38-7.43c4.33-.58 9.64-3.2 12.4-7.65z"/><path fill="#f9f2d2" stroke="#35011b" stroke-miterlimit="10" stroke-width="2.3" d="M131.82 147.63c-3.54-.44-5.11 11.63-5.59 16.45l-1.05-1.74c-2.07 4.97-2.5 12.37-1.2 15.23.93 1.25 4.01-.26 6.14 0 5.29.62 7.8-5.39 8.79-13.25l1.21.77c1.94-7.01-5.71-17.12-8.3-17.46Z"/><path fill="#f9f2d2" stroke="#35011b" stroke-miterlimit="10" stroke-width="2.3" d="M125.69 176.21c3.9-1.09 11.6-1.05 15.27 2.57 1.82 2.18 1.72 6.31-1.18 7.03-3.89 1.06-7.76.96-11.81.8l-2.96-1.78-1.57-6.74z"/><path stroke="#bba794" stroke-miterlimit="10" stroke-width="1.2" d="M129.06 178.88c1.06.95 1.95 3.23 1.72 6.31M132.81 178.46c1.06.95 1.94 3.23 1.72 6.31"/><path fill="#f9f2d2" stroke="#35011b" stroke-miterlimit="10" stroke-width="2.3" d="M66.11 147.63c-5.73 3.09-10.83 11.25-10.1 19.36l1.61-.95c.29 4.22 2.18 10.02 5.6 11.07l6.74.62 4.03-1.41c.93-2.18-.78-10.49-2.24-14.03l-.93 1.05-2.76-14.96z"/><path fill="#f9f2d2" stroke="#35011b" stroke-miterlimit="10" stroke-width="2.3" d="M73.27 105.41c-2.56 4.56-7.22 9.82-9.05 13.7l3.69-.28c-2.86 3.88-4.99 9.98-5.09 15.88l2.86-2.52c-1.36 6.21 0 12.95 1.87 15.02l3.27 16.08 1.67-1.16c1.61 4.81 2.54 12.63 1.71 16.75-.42 1.78-3.86 3.34-3.75 7.16.11 3.68 3.96 6.01 11.36 6.01 7.92 0 11.91-3.98 13.07-8.74h7.81c1.26 5.59 5.49 8.74 14.16 8.74 7.4 0 11.44-2.79 11.44-5.85 0-3.34-1.98-5.02-3.86-7.37-.62-3.05.42-11.62 2.49-16.64l1.16 1.67c.83-6.63 1.77-14.74 3.54-16.67 1.87-2.18 3.49-13.38 2.33-15.88l1.04 1.4c.94-4.86-2.5-10.65-3.96-12.68l2.96-.32c-2.96-3.98-7.28-8.9-7.8-14.3l-6.95-2.52-38.78-.42zM61.09 176.21c-3.94.95-5.88 3.9-5.67 6.7"/><path stroke="#bba794" stroke-miterlimit="10" stroke-width="1.2" d="M64.43 178.88c-1.06.95-1.94 3.23-1.72 6.31M67.64 178.46c-1.06.95-1.94 3.23-1.72 6.31"/><path fill="#e0ccae" d="m126.28 108.31-1.36-2.9-5.68-2.52-38.78-.42-6.11 2.46-2.13 3.98 1.93-.88 4.86 6.21v-4.04c2.18 2.18 10.62 7.87 19.4 10.05 5.68 1.4 13.5-3.31 17.24-6.01l-.83 2.91 7.92-7.92z"/><path fill="#d1b192" d="m107.71 156.06 2.08.95-5.2 13.71 1.26-.62-1.67 11.86c0 4.76 3.94 7.22 12.67 7.22 4.04 0 7.36-.95 8.97-2.57.37-3.49-1.09-5.43-3.21-7.41-.94-2.28-.21-11.43 2.17-18.17l-1.06-.95-2.51 6.01 1.77-9.08-4.37 4.33.52-9.08-7.4 2.95-1.46-4.86-8.67 8.39-3.59.16-7.92-6.85 3.94 15.67-1.26-.67 2.28 6.85-1.31-.89-.33 9.75h9.23l.93-11.78-1.36.73 3.32-15.65z"/><path fill="#e0ccae" d="M82.48 139.84c.83 4.56 3.74 8.38 5.67 9.33l-1.46-3.05 11.06 7.11 9.96-7.92.93 3.54c2.18-1.46 5.45-5.14 6.61-8.29-.21 3.99-5.07 10.1-7.14 12.28l1-1.15-5.49 15.67.62-9.08 2.07-5.54-7.92 6.36-7.92-7.92 1.26 3.93-1.67 12.61-1.93-10.5-3.01-5.17 3.59 1.67c-1.67-2.45-4.78-7.6-6.23-13.88"/><path fill="#d1b192" d="M79.82 121.08c-1.72 4.76 7.17 14.11 18.03 20.16l8.41-7.43-.93-5.49 3.94 4.61 4.48-6.21.05 2.51 3.11-8.46-2.02 5.33-1.04-.95-5.78 4.97-.99-3.99-3.79 6.22c-1.57 2.36-4.27 5.16-5.58 5.16s-5.49-5.48-7.26-9.46l-1.51 5.5c-2.91-.95-5.03-4.93-5.03-9.85l-2.66 1.2z"/><path fill="#e0ccae" d="m126.23 116.01 5.39 2.28-4.27-1.61 5.77 11.06.63 6.74-3.42-3.29.83 8.55-3.01 5.17-1.04-6.5-1.46 3.53 1.67-11.82-2.51-1.05 5.91 1.66zM71.03 109.98l-3.74 8.46 2.86-.73-4.86 7.92-.88 5.99 3.94-2.41-1.06 4.71 1.67-5.5-1.15 7.4.37 9.04 1.57-1.26 2.36 16.18.83 3.15.84-1.11 1.36 8.39-.32-6.41-1.51-2.79-1.15-7.4-1.97-9.48-2.07-5.12.63-6.92.52-3.98-2.24 1.3 1.88-5.9 2.41-4.4-2.62-.95 3.94-6.84z"/><path stroke="#bba794" stroke-miterlimit="10" stroke-width="1.2" d="M78.01 183.42c-1.06.95-1.94 3.24-1.72 6.32M82.69 183.79c.52 1.25.42 3.13-.15 5.32M116.43 183.79c1.06.94 1.94 3.23 1.72 6.31M122.06 183.17c1.06.94 1.94 3.23 1.72 6.31"/><path fill="#fefffe" stroke="#35011b" stroke-miterlimit="10" stroke-width="2.3" d="M111.11 9.23c12.33 2.18 20.87 10.9 22.02 22.61 9.75 7.17 13.07 12.86 12.81 23.46 3.79 7.92 2.96 15.09-1.03 22.54.52 5.07-1.98 10.29-7.56 14.17l-10.64-1.99-26.49-47.11-2.96-.62-37.25 49.72c-4.96-3.78-6.89-6.88-7.36-11.9-2.61-3.98-3.44-8.84-1.67-14.64-3.27-9.03-.76-19.32 7.64-27.03.52-6.22 4.26-11.43 10.32-14.73 3.12-9.3 11.2-14.8 24.78-18 7.06-1.98 13.11-.68 17.39 3.52Z"/><path fill="#d3e7ef" stroke="#35011b" stroke-miterlimit="10" stroke-width="2.3" d="M118.1 25.01c5.01 1.26 17.99 8.22 25.09 18.27 2.96 4.17 3.43 13.42 2.86 14.62 2.61 5.9 1.1 14.01-1.76 18.57-2.86-9.64-9.86-21.51-15.16-23.64 7.35 4.76 11.98 12.77 12.56 27.02.16 4.32-2.85 9.34-5.21 10.29-.57-17.13-11.99-36.13-37.82-47.34 10.45-4.86 21.36-10.91 19.44-17.79Z"/><path fill="#fefffe" stroke="#35011b" stroke-miterlimit="10" stroke-width="2.3" d="M116.17 10.74c6.94 2.36 13.68 9.47 15.25 18.25-4.18-2.95-8.31-4.88-12.81-5.83 1.57-4.45-.46-10.11-3.36-13.06z"/><path fill="#35011b" d="M60.01 38.96c6.9-7.91 22.94-15.14 42.31-18.72-15.79.84-40.24 9.47-43.67 18.72zM67.81 24.75c7.11-6.04 16.64-9.44 27.7-11-8.88.31-21.47 4.54-25.76 8.47z"/><path fill="#fefffe" stroke="#35011b" stroke-miterlimit="10" stroke-width="2.3" d="M114.82 10.68c4.42 4.76 5.25 13.48-.37 20.65-7.67 9.3-18.22 10.86-29.13 17.32-15.13 9.09-25.31 21.8-26.29 41.22-3.54-2.08-5.91-5.96-5.91-10.07-1.67-4.4-2.29-9.72 0-15.52 2.03-5.49 8.93-14.05 16.85-21.21-7.41 4.22-14.56 11.67-18.35 20.13-1.77-10.05 1.5-17.5 8.39-23.99 10.28-9.96 27.04-15.5 42.63-19.03-11.63.52-28.23 4.93-37.59 11.62 2.96-7.45 16.3-15.06 34.03-18.64-9.96-1.05-18.63 1.62-26.92 7.56 3.54-9.62 14.95-13.5 24.07-14.7 7.72-.99 14.41 1.04 18.59 4.66Z"/><path fill="#d3e7ef" d="M114.82 16.32c-3.54 7.45-15.8 14.73-32.7 21.52 10.1-1.15 25.79-9.06 32.7-18.71z"/><path fill="#35011b" d="M115.04 32.43c4.92.73 10.29 5.19 13.66 10.22-3.11-2.9-8.69-5.6-14.69-7.53zM110.01 37.15c5.24.94 11.35 4.98 14.8 9.79-3.71-3.01-11.11-6.01-17.66-7.11zM133.96 43.07c4.42 2.72 8.46 7.28 10.18 11.36-.63-4.22-5.08-9.48-10.18-11.36"/><path fill="#d3e7ef" d="M66.25 54.91c-6.24 4.81-12.35 12.88-13.18 22.03-.62-6.91 3.17-15.52 13.18-22.03"/><path fill="#f9f2d2" stroke="#35011b" stroke-miterlimit="10" stroke-width="2.3" d="M123.49 61.88c-5.03-6.74-15.78-12.86-25.84-17.13-9.59 2.36-22.36 11.18-26.59 18.29l-2.03 4.17-3.74 7.71-2.9 9.04 2.9-2.31-2.64 5.26-1.04 4.22.78 5.22 1.51.62 1.36-4.55c-.32 4.86 1.87 10.56 5.13 12.39l1.83-4.66c.99 3 3.9 6.93 6.41 8.5l1.56-2.46c2.91 2.77 6.96 5.49 8.83 5.91l.27-1.79c2.96 2.62 6.55 4.5 9.16 4.5 3.37 0 8.56-3.2 10.13-4.76v2.26c3.27-.84 7.64-4.23 9.31-6.17l.83 2.51c3.42-1.05 7.46-5.32 8.4-8.61l1.51 3.19c3.17-2.08 5.19-7.04 4.98-11.22l2.02 2.72c1.88-3.68.31-11.03-3.18-12.54l2.56.42c-.73-7.4-6.93-15.56-11.52-20.73Z"/><path fill="#e8d7ba" d="M71.11 73.72c1.93-5.54 5.57-10.1 9.7-10.1l2.91-3.53 5.39-1.4 4.04 2.03.57-5.21 3.42 1.1 1.41 4.86 5.73-6.37 2.91.41-3.94 6.32 7.91-5.8 2.91.63-1.26 2.28 5.29-.62 4.91 2.89 5.02 5.84 1.88 7.07-2.24 2.03-6.36-3.73-10.5 2.46-1.62-1.83-3.69-.63-1.62.42-2.23-1.93-1.83 1.2-2.07-.95-1.93 1.26-2.61-.63-3.59 3.63-3.94.73-9.52.95zM70.88 86.7c2.13-2.46 5.24-5.41 8.73-6.97-5.46-1.1-11.49 1.46-14.35 4.18l-2.34 4.17-.58 4.08 1.41 3.77 1.46-4.91 1.26.89c-.05 3.15 1.46 7.28 3.64 8.84-1.05-5.69 0-10.51 4.5-13.23z"/><path fill="#fbf1d9" d="M120.99 87.79c4.32 2.95 5.72 9.07 2.4 16.24 2.36-2.28 3.72-4.62 4.55-7.17l1.16 1.78c1.82-.95 2.93-4.53 2.65-7.44l1.36 1.51c1.36-4.22-.31-9.29-4-11.64l2.71 1.26c-2.76-4.61-8.96-7.71-14.91-7.55l-6.79 1.25.99 1.68c4.28.31 11.08 3.6 14.7 6.99-2.29-.21-3.9 1.04-4.82 3.09"/><path fill="#35011b" stroke="#35011b" stroke-miterlimit="10" stroke-width="1.2" d="M97.91 79.06c-4.76 0-5.13 2.13-5.13 3.23 0 2.62 3.54 6.55 5.21 6.55 2.46 0 6.82-3.98 6.82-7.03-.05-1.88-2.66-2.75-6.9-2.75Z"/><path stroke="#35011b" stroke-linecap="round" stroke-miterlimit="10" stroke-width="2.3" d="M85.48 89.71c0 3.39 3.54 4.75 6.61 4.75 3.64 0 6.14-2.18 6.82-6.26 1 3.59 3.18 5.05 6.4 5.05 3.43 0 7.12-1.93 7.44-4.16"/><path fill="#eb6860" stroke="#35011b" stroke-miterlimit="10" stroke-width="2.3" d="m91.73 94.26 1.88-1.16c1.46-.94 3.53-1.62 4.74-1.62 1.36 0 3.38.94 5.84 2.25l-.26 2.41c-.42 3.77-3.23 5.95-6.08 5.95-3.12 0-5.76-2.85-6.12-7.83Z"/><path fill="#35011b" d="M115.86 68.12c-4.17-.31-6.1 2.79-6.1 5.6 0 3.38 2.29 4.89 5.41 4.89 3.75 0 5.21-2.23 5.21-5 0-2.7-1.67-5.28-4.52-5.49M83.21 68.12c-4.18-.31-6.11 2.79-6.11 5.6 0 3.38 1.82 4.89 4.43 4.89 4.08 0 6.31-2.23 6.31-5.47 0-2.49-1.67-4.81-4.63-5.02"/><path fill="#fefffe" d="M83.88 73.21c1.23 0 1.93-.92 1.93-1.77 0-.99-.68-1.56-1.56-1.56-1.04 0-1.61.77-1.61 1.62 0 .92.62 1.71 1.24 1.71M114.34 73.21c1.23 0 1.93-.92 1.93-1.77 0-.99-.68-1.56-1.56-1.56-1.04 0-1.61.77-1.61 1.62 0 .92.62 1.71 1.24 1.71"/><path fill="#d3e7ef" stroke="#35011b" stroke-miterlimit="10" stroke-width="1.6" d="M151.81 98.06c3.42 3.88 6.85 8.95 6.28 13.46-.58 3.72-3.48 4.92-5.36 4.76-3.54-.37-5.42-3.66-5.05-7.14.42-3.1 3.03-7.23 4.13-11.08Z"/><path stroke="#fefffe" stroke-miterlimit="10" stroke-width="1.6" d="M153.93 106.09c1.51 1.51 2.18 3.92 1.09 6.16"/><path fill="#d3e7ef" stroke="#35011b" stroke-miterlimit="10" stroke-width="1.6" d="M48.68 111.05c1.92 4.13 4.21 7.18 3.43 11.01-.72 3.1-4.26 3.93-5.72 2.99-2.7-1.72-3.38-4.96-.47-9.57z"/><path stroke="#fefffe" stroke-miterlimit="10" stroke-width="1.6" d="M47.01 118.33c-.88 1.36-.88 2.81 0 3.86"/><path fill="#eb6860" stroke="#35011b" stroke-miterlimit="10" stroke-width="2" d="M155.49 19.72c-3.69-.42-5.87 3.56-5.3 7.39.62 4.22 2.91 8.49 5.3 11.69 4.67-1.4 11.26-3.86 13.6-8.08 1.82-3.43-.11-6.53-2.61-7.15-2.56-.73-4.54.36-6.77 2.24-.42-3.39-1.78-5.75-4.22-6.09Z"/><path fill="#d3e7ef" stroke="#35011b" stroke-miterlimit="10" stroke-width="1.6" d="M156.01 58.32c2.71-3.49 6.03-6.21 10.11-5.59 3.32.57 4.31 3.38 3.79 5.17-.83 2.81-3.12 3.28-4.99 2.71-2.76-.89-4.83-2.5-8.91-2.29Z"/><path fill="#eb6860" stroke="#35011b" stroke-miterlimit="10" stroke-width="2" d="M40.28 28.01c-3.37.72-4.15 3.29-4.93 5.22-2.56-1.61-6.15-2.45-8.23.46-2.13 3.1-1.51 6.52 3.16 9.33 3.54 2.13 6.25 2.7 9.67 3.59 3.17-4.37 6.03-9.13 5.76-13.3-.26-3.24-2.59-5.81-5.43-5.3Z"/><path fill="#d3e7ef" stroke="#35011b" stroke-miterlimit="10" stroke-width="1.6" d="M40.06 79.49c-4.04.36-6.45 4.42-10.77 4.42-3.07 0-4.79-2.9-4.37-4.73.62-2.77 2.5-3.61 5.26-3.61 4.03 0 7.88 1.83 9.88 3.92Z"/><path fill="#eb6860" stroke="#35011b" stroke-miterlimit="10" stroke-width="1.6" d="M37.93 93.52c-2.86.42-3.48 2.83-4.05 4.08-2.08-1.46-4.74-2.08-6.46.05-1.72 2.29-.41 5.1 2.96 7.08 2.76 1.62 4.53 1.78 7.04 2.51 2.51-3.73 3.97-6.54 3.81-9.64-.27-2.39-1.53-4.18-3.3-4.08ZM164.86 77.87c-2.76 0-4.22 2.76-4.11 5.04.1 3.2 2.39 6.25 3.9 8.38 3.54-.89 7.57-2.34 9.29-5.1 1.57-2.57.21-4.92-1.82-5.39-2.07-.58-3.64.52-4.41 1.47-.58-2.57-1.41-4.19-2.85-4.4Z"/></svg>