<svg xmlns="http://www.w3.org/2000/svg" width="200" height="200" fill="none" viewBox="0 0 200 200"><path fill="#fefffe" d="M0 0h200v200H0z"/><path fill="#956a57" d="M6.18 181.44c0 4.73 21.61 8.55 48.23 8.55h43.4c26.62 0 60.1-4.92 60.1-8.55s-24.76-8.55-51.38-8.55h-43.4c-26.62 0-56.95 3.82-56.95 8.55" opacity=".3"/><path fill="#f1a181" stroke="#3e0928" stroke-miterlimit="10" stroke-width="2.6" d="M199.99 151.9c-3.5 4.32-11.08 4.32-17.62.29-3.88-2.46-5.36-3.47-7.43-4.58-2.52-1.3-6.31-2.49-8.86-1.4-3.39 1.45-5.41 6.85-3.06 10.48 1.66 2.79 4.87 4.27 7.94 4.7 3.26 1.48 4.16 5.69 12.85 8.94 6.27 2.51 10.57 6.76 16.18 9.78z"/><path fill="#cc6a59" d="M199.99 174.61c-4.32-2.2-8.87-6.64-12.8-7.69-7.07-1.96-8.95-3.75-12.08-8.91-2.44-4.05-3.92-6.73-7.9-6.73-1.13 0-1.9-.87-1.49-1.67 1.39-1.23 6.04-1.33 11.25.77 3.09 1.23 5.05 3.53 10.22 5.23 4.53 1.48 9.03 1.21 12.8-1.19z"/><path fill="#f1a181" stroke="#3e0928" stroke-miterlimit="10" stroke-width="2.6" d="M199.99 100.24c-2.88.94-6.08 3.47-8.08 5.67l-8.59 1.03c-3.5.15-6.48 2.82-9.1 4.46-2.51 1.54-6.11 2.48-6.63 4.73-.52 2.82 1.84 5.98 6.32 6.13 3.36.11 7.01-2.24 8.84-3.42 2.36 1.33 4.71 1.91 7.64 1.65s3.77-1.39 3.77-1.39c1.63 3.42 3.55 6.68 5.83 8.01z"/><path stroke="#cc6a59" stroke-linecap="round" stroke-miterlimit="10" stroke-width="1.04" d="M174.12 113.26c-1.13 2.51-2.67 3.59-4.37 3.59"/><path fill="#c96e35" stroke="#3e0928" stroke-miterlimit="10" stroke-width="2.6" d="M192.84 118.38c2.11 3.73 3.85 7.71 7.15 8.17v3.74l-4.78.77c-2.06.21-3.04.73-4.26 3.13-1.63 3.47-3.25 5.72-4.83 5.3-1.33-.52-1.07-3.24-.71-3.4.67-1.08.87-2.98 0-3.75-1.48-.62-4.36-.15-6.26-.97-2.2-.98-3.13-3.54-2.26-5.18 1.03-1.9 4.06-3.13 5.86-3.13 2.66 0 4.66 1.79 6.29 4.57.78 1.38 1.81 2.3 4.89 2.09l3.78-.61s-1.43-1.18-2.76-2.87-2.52-4.96-2.52-4.96.63-.42 1.19-1.15c.67-.88.82-1.91.82-1.91zM156.81 134.04l-2.46 1.08 4.73 9.59c-1.74 5.37-1.95 11.98 3.83 15.9 2.1 1.44 5.03 1.54 6.41.72-.87-1.9-3.07-3.27-4.2-4.49-2.21-2.36-2.05-5.67 1.39-6.13 4.32-.57 8.07.41 10.43 1.43-2.15-3.26-5.9-6.19-9.51-7.02-3.31-.77-7.53-7.42-8.71-12.06z"/><path fill="#d8d8d8" stroke="#3e0928" stroke-miterlimit="10" stroke-width="2.6" d="m142.15 122.11-2.01-7.92c4.17-1.48 8.8 2.55 11.01 4.7 1.48 1.33 3.44 2.16 4.97 3.22 2.06 1.43 5.37 2.4 7.78 1.99l.11 3.83c-2.93-.15-4.06.11-5.88 2.78-1.38 2.25-4.41 1.58-6.04.2-2.16-1.9-5.76-2.82-8.97-3.7-3.21-.87-5.99-2.3-5.84-6.19.16-1.28 1.54-1.28 2.31-.71 1.13.92 1.49 1.23 2.56 1.8Z"/><path fill="#9b9b9a" stroke="#3e0928" stroke-miterlimit="10" stroke-width="1.5" d="M143.12 114.08c2.93 1.23 5.71 4.04 7.29 6.24l-3.16 2.36zM153.98 128.7a2.48 2.48 0 0 0 2.48-2.48 2.475 2.475 0 1 0-2.48 2.48Z"/><path fill="#3e0928" d="m185.82 125.01-.31 7.59-2.3.41-.26-8.91z"/><path fill="#fcfbea" stroke="#3e0928" stroke-miterlimit="10" stroke-width="2.6" d="M10.67 144.88c1.53-5.6 6.59-11.05 13.08-11.05 1.73 0 2.04.36.96 2.36-2.78 4.49-4.56 11.93-1.26 17.04 2.83 4.49 5.86 4.96 8.68 4.96l1.96 15.8c-3.16 1.74-7.68 2.31-10.19 1.54l-.31-1.33c-5.77.56-12.47-3.07-13.54-7 1.33-.15 2.2-.25 3.07-.56-5.37-3.78-7-10.83-5.57-17.54.57-2.88 1.64-5.29 3.12-4.22Z"/><path fill="#d8c2a7" d="M9.9 149.77c.36 3.98 2.41 7.49 5.49 9.54-1.74-.15-3.27-.72-4.5-1.74 2.05 5.14 6.22 8.51 13.02 8.51l-1.08 7.76c-5.77-.26-11.55-3.52-12.78-6.73 1.23-.16 2.56-.36 3.08-.57-4.91-3.83-6.34-10.32-5.42-16.45.36-2.51 1.33-5.02 2.61-5.38-.31 1.48-.57 3.33-.42 5.06"/><path fill="#d8c2a7" stroke="#3e0928" stroke-miterlimit="10" stroke-width="2.6" d="M117.39 141.15c5.21 3.98 9.04 10.73 8.42 16.47l-1.68.31c.57 3.83-1.89 7.35-4.04 10.12 4.96 1.23 7.32 4.34 7.06 8.46-.26 3.83-3.47 4.6-9.4 4.6s-12.63-1.18-16.8-2.31l-9.64-1.89-.82-32.9 3.65-5.89 13.49.31z"/><path stroke="#3e0928" stroke-miterlimit="10" stroke-width="1.5" d="M115.71 172.13c1.73 1.8 1.99 4.67 1.22 6.92M121.13 171.72c1.58 1.69 1.78 4.81.65 6.96"/><path fill="#fcfbea" stroke="#3e0928" stroke-miterlimit="10" stroke-width="2.6" d="M127.92 108.4c1.91-2.25 5.56-3.38 9.21-3.38 9.5 0 16.78 8.39 16.78 13.72l-1.78 1.33c-2.21-4.03-7.07-6.91-10.67-6.04l5.42 8.7-6.09 3.16c-3.35.15-7.38-2.1-7.38-7.15l.77 3.99-10.47-2.66 1.08-8.85z"/><path fill="#fcfbea" stroke="#3e0928" stroke-miterlimit="10" stroke-width="2.6" d="M37.35 136.71c-1.86 0-1.04-2.05.87-4.56 5.42-6.71 12.49-14.84 14.6-23.85l-1.86-.87c1.76-3.73 3.72-7.25 6.13-10.03l-2.36-.87c2.51-2.93 6.16-5.9 7.49-10.39l-1.82-4.49 2.51-3.57 7.12-4.33 47.77 17.19c4.08 4.18 9.14 10.89 9.91 14.26l-2.3-.57 2.3 6.19-3.7 4.49 3.7-3.98-4.69 4.8-1.96 1.79-1.77 7.29.82 6.51-2.1-.66-.36 6.5c2.05 1.23 4.87 1.85 7.38 1.49l.57-2.15 3.7.77c3.45-2.56 6.95-7.05 10.2-11.54l-1.58-1.02-3.79-1.9-1.38-5.09.87 3.37 3.5 1.94 2.57-1.32-2.57-3.99 2.57 2.21 3.25.36-3.09-6.6 1.43-.72c2.93.46 7.15 3.33 9.35 6.65l2.51-2.05c-1.13-5.45-8.35-12.26-16.07-11.85-5.26.31-9.52 3.73-13.02 8.17l-.87-9.06 2.67.47c-1.13-2.88-3.14-5.65-4.67-7.08l2.51.26c-1.48-3.11-3.78-5.94-6.24-8.19l-49.34-3.57c-1.63 3.83-4.74 8.01-8.86 10.93l1.77.57c-2.21 2.1-4.82 5.46-5.95 8.48l2.88-.77c-2.83 8.13-9.22 17.45-17.7 28.61l2.93-.31c-6.75 7-10.87 15.29-10.87 23.48 0 5.5 2.1 10.6 5.3 15.88 0 3.22 1.43 5.12 7.1 7.07s9.12 4.36 15 4.36 12.27-.57 12.42-5.46l2.98 2.25c2.05 3.52 5.11 5.57 9.98 5.57 3.4 0 3.66-.67 4.83-.46 2.72.52 6.22.1 7.99-1.64 2.72-2.77 2.98-7.05-.13-10.08l-1.87-5.55c6.03-3.83 11.2-9.12 12.78-14.62l.72 1.79c2.2-3.42 3.58-10.17 4.3-14l2.1 2.93 1.82-16.11 2.1 2.15-.51-8.13-2.51 5.75-1.53-1.53-1.43 11.63-1.86-3.63c-1.96 5.9-3.64 12.45-5.36 16.02l-.87-1.08c-1.73 4.85-5.95 9.95-10.48 13.01l-1.77-19.91 1.77.72-1.77-5.99-.87 3.07c-.72 7.65.56 18.54 3.18 30.73 4.02 3.21 5.4 6.09 3.39 10.58-1.28 2.62-4.39 3.69-8.09 3.69l-3.2.31c-6.09 0-9.88-2.46-12.03-9.42l-4.58-14.7-1.18 1.43-.92-4.54-1.87 9.59 1.18 1.43c4.32 1.69 4.68 4.41 4.37 7.93-.57 4.03-4.36 5-9.68 5.47l-3.89.41c-4.86-.31-9.39-2.77-14.96-4.61-4.12-1.33-6.17-2.71-6.94-5.97-2.62-4.44-4.98-10.23-4.98-15.73-.03-7.86 2.08-14.81 5.01-22.01Z"/><path fill="#d8c2a7" d="M61.73 147.01c-2.98-3.83-7.2-4.96-14.53-3.52 5.42-1.44 8.25-2.31 11.28.26l2.93-17.5 1.12 20.19 3.55-10.63.57 15.81 2.25-7.2 2.01 15.81-1.68-3.07-1.58 11.79-2.46 1.85c2.06-7.05 2.62-16.38-3.46-23.79"/><path fill="#d8c2a7" d="m36.03 166.28 1.18-4.03c0 4.9 2.51 9.94 6.44 9.94s8.9-1.74 12.5-2.51c4.76-1.08 5.02-6.46 5.02-10.63 0-6.04-3.26-13.44-7.94-15.34l4.68 1.43c3.5 2.57 5.71 7.61 6.53 12.1l-.72-8.19 2.51 2.25-.36-5.28 2.25 2.93.62 12.45-1.53-3.27-.36 10.69-1.86 2.25c-6.8-.72-12.58.71-16.18 5.5 3.4-.46 6.32 1.33 8.48 2.66l-4.17-1.18 5.93 5.79-6.84-1.23-8.2-3.68c-4.53-1.18-5.96-2.72-5.92-7.91z"/><path stroke="#3e0928" stroke-miterlimit="10" stroke-width="1.5" d="M60.05 177.14c2.16 1.69 2.26 4.66 1.34 7.12M66.08 176.17c2.31 1.23 2.83 4 1.95 6.62M86.85 179.09c1.96 1.79 2.26 4.36 1.49 6.61M94.92 179.09c1.82 1.43 2.03 4.2.5 6.35"/><path fill="#d8c2a7" d="m67.05 93.3 3.16 2.77.31-2.25c3.6 3.98 8.41 7.09 12.53 9.24-6.13-1.43-12.01-5.92-16-9.76M82.44 111.22c1.23 4.29 3.79 7.41 6.41 8.84l-.31-3.73 7.57 9.92-.2-5.1 6.28 7.75c2.78-1.79 5.03-4.96 6.46-8.84l1.18 5.15c3.6-2.67 6.22-8.17 6.53-16.09 1.77 4.9 0 11.1-2.51 16.09l-2.83 2.51-.77-2.51-4.17 4.74c-1.82 1.54-3.63 3.17-5.64 3.48l-2.15-5.35-1.38 1.13-7.28-9.14-.62 4.18c-3.4-2.35-6.22-6.53-6.57-13.03M125.61 126.14l5.93-1.03-3.35-1.89 2.52-7.81 2.51 4.91 4.69 1.79 1.02 1.94-3.64 2.09-3.75 1.89-.31-1.89zM107.93 105.02c2.78-1.38 7.3-4.9 9.36-7.41l-2.83 1.53 1.96-3.93-4.68 2.4-6.03 3.11c-3.79 1.54-14.56-.97-20.94-3.89v-2.46c-4.58 1.74-11.12-4.05-14.18-7.26l-.57 3.21c-2.98-2.15-4.8-4.2-6.08-7.31-1.23 3.68-3.54 5.88-5.21 6.3l2.3-3.19-1.02-5.09 4.22-4.49 52.65 13.08c.87 1.02 1.44 1.79 2.06 3.17-2.83 3.83-6.13 8.63-11.01 12.23"/><path fill="#fcfbea" stroke="#3e0928" stroke-miterlimit="10" stroke-width="2.6" d="M142.71 36.28c-4.53-3.68-7.61-5.27-10.39-9.66-3.06-3.83-5.57-6.44-10.24-6.6l.97-2.51c-6.74-4.59-12.92-6.43-18.34-5.86l.15-2.41c-5.42-.47-8.82 1.38-11.07 3.73-4.53-2.66-8.56-3.43-13.72-2.35-1.82.46-1.98 2.05-1.06 2.36 1.07.41 1.43.57 2 .88-8.9-.31-16.28 3.21-20.36 8.06-5.31.46-9.63 3.13-11.64 8.17-3.6 7.06-8.87 10.03-13.4 15.43-5.47 5.99-4.5 15.42-.38 20.22l1.33-1.64c1.77 5.15 4.6 7.61 10.07 11.99 2.51 1.84 2.51 5.52 5.62 5.93 4.53.72 5.86-.92 7.87-2.5l-.98 2.5c.67 3.73 2.05 5.42 4.77 6.91l1.02-3.88c3.6 7.05 10.5 11.68 18.69 13.06V95.6c4.42 2.51 10.04 3.69 13.1 3.69l-.57-1.18c3.03 1.74 7.3 2.61 10.51.93 7.23-3.38 18.44-9.33 22.56-17.79 2.51 2.56 5.03-1.06 5.03-8.56 2.93.92 5.7 0 5.7-3.58 0-2.56 3.16-8.21 4.93-13.95l1.23.92c3.5-5.24 2.68-14.98-3.4-19.8Z"/><path fill="#d8c2a7" d="M39.11 52.7c-.92 3.52-1.9 6.03-3.72 7.41-.26-3.21-.57-6.32.66-9.85l-.97 6.27-.87 2.51 1.43 5.99 2.51 3.02 3.94 4.03 4.53 3.07 2.51 3.93 1.77 2.57 4.37-.2 3.8-3.37 2.83-6.56-.77-12.79 2.83-11.64 5.93-11.94c-4.97 2.87-8.95 12.76-9.77 22.66-.31 3.98-1.08 7.5-3.91 9.96l-1.12-5.55-4.53 6.5c-3.55-2.46-4.52-5.83-5.04-13.96l-2.88 6.05zM53.12 28.61c3.03-3.11 5.54-4.29 10.07-4.6l5.93-.92-6.13-1.84 2.25-1.23-3.5 1.23c-3.79.36-6.95 2.1-9.15 5.21z"/><path fill="#fcfbea" d="m60.02 39.71 7.53-9.01c-3.35-1.69-6.75-1.79-9.8-1.07zM119.71 29.63c5.42 1.54 10.84 5.52 13.51 13.28l-2.15 4.23 2.15 8.98 4.53-5.99 1.07 7.75 3.79-15.28 2.51 3.32.57 5.24.57.92.92-4.94-2.06-8.09-9.6-7.22-8.2-8.13-4.68-.61 4.68 3.22 3.75 4.75-5.58-3.32z"/><path fill="#fff9f0" d="M116.21 39.61c-3.04.67-6.07 3.34-7.09 7.58-1.18 4.64 0 8.16 2.51 11.58l-3.64-1.69-2.26 1.95-2.93-1.95-3.93 2.57-3.26-13.63-3.5-2.51c-4.27-1.89-8.96-.87-14.38 3.11 5.42-.57 8.2 0 10.02 1.54-3.55-.92-11.74.97-17.11 15.07l-3.5.87-1.02-18.04 2.51-1.84-3.49 4.49-.31 16.94c.31 7.05-1.75 11.39-5.1 13.54l2.26 2.92 1.82-1.84c1.38 4.9 3.9 7.77 6.57 9.51l.87-3.52c2.15 4.38 6.97 7.9 12.69 9.65l.31-2.46c4.17 2.56 10.1 3.69 12.77 3.69l-.87-1.53c2.98 1.74 7.51 2.46 9.92.77l3.98-2.98.97 1.23c4.53-2.15 8.03-5.62 8.6-6.59l.57 2.46c4.52-2.92 7.82-7.41 8.44-16.48l1.53 5.74c1.53-2.46 2.1-6.7 0-11.55l-3.65-8.14-3.6.97c-4.68-2-11.96-6.13-10-16.82.52-2.15 1.8-3.73 3.3-4.61"/><path fill="#d8c2a7" d="M116.21 43.15c2.51-1.13 5.81-1.44 8.48.56l-3.55 1.02c2.98 0 5.91 1.28 7.58 4.3l-1.28-7.01-3.93-4.18 4.7 2.77 2.98 4.99 1.96 7.01-1.96 15.11-2.98-2.67-1.28-6.04-4.22 1.07c-4.76-1.74-11.09-5.26-10.47-14.02.41-1.79 1.79-2.91 3.97-2.91"/><path fill="#f8eed8" d="m96.16 44.22 2.77 3.88 3.3-3.88 1.96 2.92 2.93-5.12 1.02 6.08.87-5.05 2.51-2.93-4.53 1.49-4.27 2.05-2.62-.61zM73.09 70.01c-3.08 2.62-3.95 6.19-2.42 11.64l2.41 2.41c.57-4.34 4.07-7.76 7.67-9.45-2.98 2.77-4.8 6.14-4.64 10.02 2.51-3.22 4.97-4.91 7.9-5.88l-.87 9.06 2.51-1.69 1.96 3.52 2.31-5.58c1.12-1.99 2.88-2.91 5-2.45-3.3 2.46-3.82 6.29-2.24 10.17l2.56-1.54c2.78 2.87 7.89 3.94 13.46 0l-1.18 2.51 5.62-3.98.57 1.74c3.3-2.4 5.81-5.02 6.93-8.44l2.26 1.74c1.02-3.88.05-7.4-4.17-9.8l1.91 1.13 2.01 1.79 1.63 2.78 4.03-5.69-2.21-6.3-7.01-4.84-10.9-1.53-11.06 1.89-10.46 2.87-9.6 3.93z"/><path fill="#3e0928" d="M101.62 69.67c0-2.61 3.6-3.48 7.54-3.48 3.93 0 6.09 1.02 5.88 3.9-.31 3.83-2.92 7-5.7 7-3.11 0-7.72-3.88-7.72-7.42"/><path stroke="#3e0928" stroke-linecap="round" stroke-miterlimit="10" stroke-width="2.6" d="M96.71 80.31c2.21 3.07 10.56 3.74 12.61-2.25 1.91 3.07 6.73 3.59 8.21 0"/><path fill="#9b6a59" d="M106.02 68.31c1.07-.67 4.09-1.19 5.91-.36.97.46 0 1.38-2.82 1.8-2.83.41-4.16-.56-3.09-1.44"/><path fill="#3e0928" d="M117.89 50.43c-3.55 0-4.72 2.87-4.26 6.6.26 1.74 1.13 2.61 2.66 2.3l2.93.31c2.46 0 3.33-2.51 3.33-4.51 0-2.61-2.01-4.7-4.66-4.7"/><path fill="#6d453c" d="M117.39 56.32c.83 0 1.51-.68 1.51-1.51 0-.84-.68-1.51-1.51-1.51-.84 0-1.51.67-1.51 1.51 0 .83.67 1.51 1.51 1.51"/><path fill="#3e0928" d="M86.62 53.95c-4.37 0-5.9 3.68-5.9 6.19 0 3.47 2.2 5.93 5.03 5.46 2.26-.36 5.24-1.69 6.31-4.2 1.63-3.67-.97-7.45-5.44-7.45"/><path fill="#6d453c" d="M87.64 59.23c.98 0 1.78-.79 1.78-1.77s-.8-1.77-1.78-1.77-1.77.79-1.77 1.77.79 1.77 1.77 1.77"/><path fill="#e8e8e8" stroke="#3e0928" stroke-miterlimit="10" stroke-width="1.7" d="M165.71 12.78c.97-1.75 1.94-3.08 2.05-2.16l.57 34.28-4.68.21.57-30.08c0-1.23.52-1.23 1.49-2.25Z"/><path fill="#80b9c9" stroke="#3e0928" stroke-miterlimit="10" stroke-width="1.7" d="M163.25 45.41h5.06c2.2 0 3.38 2.51 2.2 5.13-1.62 3.37-1.36 6.48-.13 14.62 1.28 8.7 0 18.85-1.28 25.65-.88 3.52-5.85 3.93-6.72 0-2.1-10.59-2.46-20.8-.64-30.69.57-3.26.31-5.88-1.22-9.35-.97-2.46-.3-5.36 2.73-5.36Z"/><path stroke="#62959b" stroke-miterlimit="10" stroke-width="1.7" d="M166.28 92.12c2.41-5.99 2.98-20.7 1.16-32-.72-4.34 0-8.07.57-12"/><path fill="#e8e8e8" stroke="#3e0928" stroke-miterlimit="10" stroke-width="1.7" d="M182.32 12.78c3.17 1.84 5.63 5.01 5.47 7.83-.1 1.54-1.63 1.54-1.63 2.87l.77 14.44-4.87.1 1.13-21.46z"/><path fill="#cc8241" stroke="#3e0928" stroke-miterlimit="10" stroke-width="1.7" d="M182.32 38.02h5.07c1.81 0 2.93 2.87 1.96 5.49-1.76 4.24-1.51 8.42-.33 15.22 1.28 8.7 0 20.05-1.58 32.38-.72 3.27-5.4 3.53-6.02 0-2.2-13.35-3.48-23.55-.65-36 .87-4.03-.16-8.78-1.39-11.9-1.07-2.88-.1-5.19 2.94-5.19Z"/><path stroke="#ad5929" stroke-miterlimit="10" stroke-width="1.7" d="M184.68 92.12c1.96-7.05 2.83-20.09 1.96-30.68-.47-5.79.55-12.35.97-16.53"/><path fill="#ad3838" stroke="#3e0928" stroke-miterlimit="10" stroke-width="2.6" d="M11.99 27.31h.42c3.2 0 4.43 2.41 4.58 4.71l1.28 51.02c0 1.54-1.86 3.18-1.86 7.97 0 5.7 2.41 16.14 2.41 22.9 0 6.2-3.6 9.27-7.09 9.27-4.22 0-6.42-4.24-6.42-9.03 0-6.04 2.46-18.24 2.46-23.14 0-3.98-1.58-5.72-2.04-7.1L7.4 32.02c.11-2.77 1.79-4.71 4.59-4.71Z"/><path fill="#b2b2b2" stroke="#6f6f6e" stroke-miterlimit="10" stroke-width="1.7" d="M8.47 32.91 7.29 83.04h10.02l-1.02-50.03c-.46-2.56-1.69-3.79-3.95-3.79s-3.69 1.43-3.87 3.69Z"/><path stroke="#868686" stroke-miterlimit="10" stroke-width="1.7" d="m8.12 82.32 8.58-11.25M7.91 76.82l8.59-11.25M7.71 71.32l8.58-11.25M7.5 65.82l8.59-11.25M7.3 60.32l8.58-11.25M7.09 54.82l8.58-11.25"/></svg>